<svg width="1320" height="712" viewBox="0 0 1320 712" fill="none" xmlns="http://www.w3.org/2000/svg">
<path d="M0 90.1129C0 58.9513 0 43.3705 6.28649 32.0486C11.807 22.1063 20.5517 14.3429 31.0781 10.0393C43.065 5.13844 58.5361 6.98442 89.4782 10.6764L1249.48 149.085C1274.43 152.063 1286.91 153.552 1296.32 159.377C1304.61 164.509 1311.22 171.952 1315.33 180.79C1320 190.823 1320 203.389 1320 228.522V632C1320 660.003 1320 674.004 1314.55 684.7C1309.76 694.108 1302.11 701.757 1292.7 706.55C1282 712 1268 712 1240 712H80C51.9974 712 37.9961 712 27.3005 706.55C17.8924 701.757 10.2433 694.108 5.44967 684.7C0 674.004 0 660.003 0 632V90.1129Z" fill="#514270"/>
<mask id="mask0" mask-type="alpha" maskUnits="userSpaceOnUse" x="1" y="18" width="1319" height="692">
<path d="M1 101.911C1 70.8118 1 55.2622 7.27029 43.9517C12.7767 34.0191 21.5005 26.2569 32.0059 21.9427C43.9688 17.03 59.413 18.8379 90.3013 22.4537L1249.3 158.127C1274.31 161.055 1286.82 162.519 1296.25 168.339C1304.56 173.466 1311.19 180.913 1315.32 189.763C1320 199.808 1320 212.4 1320 237.585V630C1320 658.003 1320 672.004 1314.55 682.7C1309.76 692.108 1302.11 699.757 1292.7 704.55C1282 710 1268 710 1240 710H81C52.9974 710 38.9961 710 28.3005 704.55C18.8924 699.757 11.2433 692.108 6.44967 682.7C1 672.004 1 658.003 1 630V101.911Z" fill="#514270"/>
</mask>
<g mask="url(#mask0)">
<path d="M909.289 517.549C909.289 517.549 908.581 518.223 907.87 517.549C907.87 518.897 906.452 519.573 906.452 521.597C902.906 522.271 901.488 524.97 897.941 525.645C898.65 529.018 897.232 531.044 893.687 531.044C894.396 533.742 897.232 536.44 900.068 537.115C898.65 541.837 904.325 547.911 895.814 540.488C886.593 547.237 898.65 547.237 899.359 551.284C900.777 549.935 902.906 549.935 903.615 549.935C902.906 552.634 900.777 554.66 897.941 554.66C897.941 556.684 897.232 556.008 898.65 558.032C895.814 562.081 904.325 568.154 907.162 566.805C909.998 570.177 903.615 577.6 900.777 578.95C901.488 579.624 902.906 579.624 904.325 580.299C905.744 575.577 909.998 573.551 913.545 569.503C915.673 566.805 915.673 562.754 919.219 560.056C919.219 562.081 920.637 560.731 919.219 563.429C921.346 563.429 922.764 563.429 924.892 562.081C924.892 562.754 924.892 562.754 925.602 563.429C927.784 560.108 929.43 560.874 931.364 561.641C932.573 562.12 933.894 562.599 935.531 562.081C935.531 563.429 936.24 564.781 936.24 566.13C941.915 565.456 946.878 572.876 948.298 576.926C949.007 576.251 950.426 576.926 951.135 576.251C951.845 579.624 957.518 589.071 960.355 588.397C962.483 591.769 960.355 595.143 964.611 595.143C964.611 595.143 966.028 597.169 965.32 597.169C962.483 599.193 963.193 611.338 966.028 613.361C966.737 615.386 968.156 616.734 970.283 618.084C969.574 622.807 975.958 630.229 978.086 633.604C981.631 639.001 985.179 643.051 989.434 647.098C988.725 639.676 980.923 634.278 979.504 627.531C983.051 629.553 991.562 639.676 993.689 643.051C995.107 645.075 995.817 648.448 997.236 651.146C998.655 651.821 1003.62 653.846 1005.75 655.196C1006.46 654.522 1007.87 653.846 1008.58 653.171C1010.71 657.22 1014.26 653.846 1017.09 657.22C1017.8 657.22 1017.8 656.545 1018.51 655.87C1019.93 659.918 1023.48 659.243 1025.61 661.942C1026.31 661.942 1027.02 661.942 1027.02 661.942C1029.15 664.642 1031.99 668.691 1036.95 668.016C1036.95 665.992 1037.66 666.667 1038.37 665.318C1039.79 667.341 1041.21 668.016 1042.63 669.365C1044.05 665.992 1040.5 664.642 1038.37 662.617C1037.66 663.29 1036.24 663.968 1036.24 664.642C1034.12 662.617 1033.41 659.918 1033.41 657.22C1032.7 657.896 1031.99 658.568 1031.28 658.568C1029.86 656.545 1028.44 654.522 1025.61 653.846C1026.31 651.821 1025.61 649.124 1026.31 647.773C1024.9 648.448 1023.48 648.448 1022.06 650.472C1021.35 649.797 1020.64 649.124 1019.93 648.448C1014.26 657.22 1000.07 638.327 1012.13 633.604C1012.13 634.278 1012.13 634.278 1012.84 634.954C1014.12 632.93 1016.16 633.092 1018.51 633.254C1020.07 633.361 1021.78 633.469 1023.48 632.93C1023.48 630.229 1024.19 629.553 1027.02 628.88C1027.02 630.229 1027.73 630.907 1027.73 632.254C1027.73 632.254 1029.15 630.907 1029.15 631.581C1033.41 633.604 1030.57 638.327 1035.54 641.025C1040.5 638.327 1031.99 630.229 1039.08 626.856C1041.92 626.856 1046.17 620.11 1044.05 617.409C1046.17 614.036 1049.01 613.361 1051.14 609.314C1052.56 606.613 1050.43 602.566 1056.1 601.216C1056.81 602.566 1058.23 603.24 1058.94 604.589C1061.78 603.914 1061.78 600.541 1060.36 597.843C1061.07 597.843 1062.49 597.843 1063.19 597.843C1063.19 598.518 1063.19 599.192 1063.9 599.867C1067.45 600.541 1073.83 600.541 1069.58 595.143C1067.45 597.169 1060.36 593.793 1057.52 593.119C1058.94 587.047 1064.61 589.071 1067.45 591.769C1070.29 590.421 1071.71 587.047 1074.54 585.696C1074.54 589.071 1070.29 600.541 1078.8 595.143C1078.8 596.491 1080.93 597.843 1080.93 599.193C1088.73 595.817 1080.93 595.143 1080.22 593.119C1078.09 589.071 1078.09 585.696 1075.96 582.323C1075.96 581.648 1073.83 582.323 1073.12 581.648C1073.12 580.974 1073.83 578.275 1073.12 577.6C1072.42 576.926 1068.87 574.9 1068.16 574.225C1066.03 571.527 1066.03 567.479 1062.49 566.805C1061.07 564.781 1060.36 562.081 1061.07 559.382C1058.23 559.045 1057.52 560.394 1056.99 561.743C1056.46 563.093 1056.1 564.442 1053.98 564.104C1049.72 563.429 1051.14 554.66 1046.17 554.66C1038.37 553.31 1044.05 571.527 1044.05 576.926C1043.34 576.926 1041.92 576.926 1041.21 576.926C1041.21 578.95 1041.92 580.974 1041.92 582.997C1041.92 585.021 1040.5 587.723 1040.5 589.071C1036.24 589.746 1034.12 586.373 1035.54 582.997C1029.86 582.323 1034.12 574.902 1026.31 576.251C1024.19 572.201 1017.09 569.503 1012.84 565.456C1014.26 561.405 1012.84 557.358 1016.38 552.634C1020.64 548.586 1024.19 548.586 1024.19 541.837C1024.9 541.837 1026.31 542.514 1027.02 543.189C1027.73 541.837 1028.44 541.837 1029.15 541.165C1029.15 538.464 1029.15 539.139 1030.57 537.115C1030.57 537.79 1031.28 539.139 1031.28 539.813C1032.7 539.139 1033.41 537.79 1034.12 536.44C1033.41 535.766 1032.7 535.766 1031.99 535.092C1035.54 531.718 1034.12 524.97 1029.15 523.621C1029.15 528.344 1031.28 531.718 1027.02 534.417C1024.9 533.068 1023.48 532.393 1021.35 532.393C1022.06 530.369 1020.64 528.344 1021.35 526.994C1019.93 526.32 1019.22 526.32 1017.8 526.32C1017.09 523.621 1015.68 516.198 1012.84 515.523C1012.84 513.5 1013.55 511.476 1014.26 510.127C1017.09 510.127 1019.93 508.777 1019.22 505.403C1010 501.355 1012.84 517.549 1010.71 521.597C1012.84 524.97 1016.38 529.695 1013.55 533.742C1011.42 531.044 1010.71 526.994 1007.17 525.645C1006.46 528.344 1007.17 531.044 1009.29 533.068C1006.46 535.766 997.946 534.417 996.526 530.369C995.107 530.369 992.979 529.695 991.562 529.695C991.562 531.044 990.853 533.068 990.853 534.417C989.277 533.817 987.981 534.284 986.654 534.75C984.994 535.333 983.286 535.916 980.923 534.417C980.923 533.742 980.923 533.742 981.631 533.068C976.668 534.417 974.54 528.344 970.283 526.994C968.215 526.432 966.393 526.455 964.663 526.478C962.242 526.511 960 526.544 957.518 524.97C956.808 524.97 956.808 525.645 956.1 526.32C955.391 525.645 955.391 525.645 953.972 524.97L953.263 526.32C949.007 527.668 944.752 527.668 941.206 529.695C940.497 528.344 939.788 527.668 939.078 526.994C935.531 525.645 930.566 525.645 927.021 525.645C926.312 525.645 925.602 524.296 924.892 524.296C924.183 524.296 924.183 524.97 923.473 525.645C922.764 522.947 920.637 522.271 917.8 522.947C917.8 522.271 917.8 522.271 917.8 521.597C917.092 521.597 917.092 522.271 916.383 522.271C916.383 522.271 916.383 521.597 915.673 521.597C914.963 521.597 914.254 522.271 913.545 522.271C912.125 520.923 909.289 518.897 909.289 517.549" fill="#574778"/>
<path d="M961.063 512.825C961.063 513.5 961.063 514.174 961.063 514.849C963.902 515.523 964.611 517.549 966.737 520.248C969.574 518.897 969.574 513.5 970.994 511.476C973.831 508.103 975.959 507.427 979.504 506.078C978.086 500.68 974.54 504.728 970.994 504.053C967.448 502.704 964.611 495.282 961.774 502.704C964.611 504.728 965.321 508.103 966.028 510.801C964.611 510.801 962.483 512.15 961.774 512.15" fill="#574778"/>
<path d="M975.251 511.476C975.251 512.825 973.831 513.5 975.251 514.849C973.831 515.524 973.122 516.198 972.411 516.874C973.122 516.874 974.54 517.549 975.251 516.874C975.251 518.223 975.959 520.923 975.251 522.272C978.795 520.248 983.76 520.923 986.597 522.272C983.76 524.97 979.504 524.295 975.959 524.97C977.377 526.32 980.214 527.669 983.051 527.669C982.34 529.018 983.76 529.695 983.76 531.044C988.017 531.044 989.434 526.994 992.979 526.994C996.527 526.32 999.364 528.344 1002.2 529.695C1001.49 526.994 1000.07 524.295 1002.2 521.597C994.399 519.573 997.946 509.452 995.107 504.728C990.143 506.078 992.979 512.15 991.562 515.523C989.434 513.5 990.143 509.452 986.597 508.104C986.597 510.127 985.178 510.801 985.888 512.825C981.632 510.801 975.959 507.428 974.54 510.801" fill="#574778"/>
<path d="M966.028 488.534C966.028 489.21 965.32 490.558 965.32 491.233L966.737 490.558C967.448 491.908 967.448 493.257 968.156 494.607C971.703 491.233 970.993 487.86 975.958 485.161C975.25 484.486 975.25 483.812 974.54 482.462C975.25 482.462 977.377 481.786 978.086 481.786C978.086 483.136 979.504 484.486 980.214 485.161C983.051 481.112 975.958 476.39 973.831 482.462C969.574 481.112 968.156 485.836 966.028 488.534" fill="#574778"/>
<path d="M974.54 490.558C972.411 491.233 970.993 493.257 970.993 495.957C973.831 494.607 975.25 493.257 976.668 491.233C975.958 490.558 975.25 490.558 974.54 489.884C975.25 488.534 975.958 487.186 977.377 485.836C975.25 485.161 975.25 486.511 974.54 487.86" fill="#574778"/>
<path d="M980.214 489.21C978.795 489.884 978.086 489.884 977.377 491.233C978.086 491.233 978.086 491.908 978.795 492.582C977.377 493.257 975.958 495.957 975.25 495.957C978.086 498.657 981.631 497.306 985.178 496.632C983.051 497.981 983.051 500.005 981.631 500.68C985.178 502.03 988.017 500.005 989.434 497.306C993.689 500.005 995.817 497.981 999.364 497.981C998.655 495.282 995.817 492.582 992.979 493.932C992.979 494.607 993.689 491.908 994.399 491.233C992.979 491.233 991.561 490.558 990.143 490.558C989.434 488.535 988.725 487.186 988.017 485.836C985.888 489.21 988.725 491.908 987.308 494.607C984.469 493.257 983.051 490.558 980.923 489.21" fill="#574778"/>
<path d="M981.631 478.413C981.631 479.762 983.051 481.786 983.76 483.136C987.308 482.461 987.308 479.088 989.434 477.064C986.597 473.015 983.051 479.088 979.504 477.739" fill="#574778"/>
<path d="M984.469 473.691C987.308 474.365 988.017 473.691 990.143 475.041C990.143 474.365 990.853 473.015 990.853 472.34C988.017 470.992 986.597 471.665 985.178 474.365" fill="#574778"/>
<path d="M995.817 466.268C995.107 467.617 995.107 468.292 995.107 469.641C995.817 469.641 997.236 469.641 997.946 469.641C997.946 470.316 998.655 472.34 998.655 473.015C997.946 473.015 997.236 474.365 995.817 475.041C997.946 475.041 1000.78 475.713 1002.91 475.041C1004.33 477.064 1005.04 478.413 1005.04 479.763C1003.62 479.763 1002.2 479.763 1000.78 479.763C1002.2 483.812 1007.87 481.786 1007.87 478.413C1007.87 475.041 1002.2 473.69 1002.2 470.316C1001.49 468.967 998.655 466.943 997.946 466.943" fill="#574778"/>
<path d="M993.689 479.088C993.689 479.763 993.689 480.437 993.689 481.787H995.107C995.107 482.462 995.107 483.812 995.107 485.161C999.364 483.812 997.236 480.437 994.399 479.763" fill="#574778"/>
<path d="M1008.58 471.665C1007.87 472.34 1007.17 473.015 1006.46 473.69C1008.58 474.365 1010 475.713 1010.71 478.413H1010C1013.55 477.064 1012.13 473.015 1009.29 471.665" fill="#574778"/>
<path d="M1013.55 480.437C1012.84 480.437 1012.13 480.437 1011.42 480.437C1011.42 480.437 1011.42 481.786 1012.13 482.461C1014.26 481.786 1014.26 481.112 1014.26 479.763" fill="#574778"/>
<path d="M1019.22 481.112C1019.22 481.112 1018.51 481.786 1018.51 482.461C1021.35 482.461 1019.93 483.136 1021.35 481.112H1019.93" fill="#574778"/>
<path d="M996.527 487.86C997.236 487.86 997.236 488.534 997.946 487.86C999.364 490.558 1000.07 489.21 1001.49 490.558C1001.49 489.884 1000.78 489.21 1000.78 488.534L1002.91 489.884C1002.91 484.486 1006.46 485.836 1008.58 489.21C1010 492.582 1007.17 494.607 1007.17 497.981C1005.04 497.306 1003.62 495.957 1003.62 493.257C1002.91 493.931 1001.49 493.257 1000.07 493.931C999.364 492.582 997.946 490.558 997.236 488.534" fill="#574778"/>
<path d="M1011.42 494.608C1011.42 495.282 1010.71 495.282 1010 495.957C1010 497.306 1010.71 497.982 1010 499.331C1017.09 503.379 1014.26 493.257 1014.26 491.233C1012.13 491.908 1013.55 492.582 1012.84 493.932" fill="#574778"/>
<path d="M1007.87 504.728C1007.87 506.078 1007.87 508.103 1007.87 509.452C1011.42 512.15 1009.29 515.523 1007.17 518.223C1003.62 515.523 996.526 512.15 999.364 508.103C1000.07 510.127 1001.49 510.801 1002.2 512.825C1005.04 509.452 997.946 504.728 1005.04 504.054C1005.75 504.054 1005.75 504.728 1005.75 505.403C1006.46 505.403 1007.87 504.728 1007.87 504.728" fill="#574778"/>
<path d="M1011.42 485.161C1010.71 485.836 1010.71 485.161 1010 486.511C1010.71 487.186 1012.13 488.535 1012.13 489.21C1018.51 487.86 1016.38 494.607 1018.51 497.981C1020.64 500.68 1026.32 501.355 1029.86 500.68C1029.86 499.331 1030.57 497.981 1030.57 497.981C1032.7 497.981 1036.95 500.005 1038.37 498.657C1041.21 495.957 1036.25 492.582 1033.41 491.908C1031.28 493.932 1028.44 494.607 1025.61 495.282C1014.26 485.161 1033.41 488.535 1039.08 490.558C1039.79 489.884 1040.5 489.21 1040.5 488.535C1040.5 487.86 1039.08 487.86 1039.08 487.186C1038.37 486.511 1039.79 485.836 1039.79 485.836C1039.79 485.161 1038.37 484.486 1037.66 483.812C1046.88 481.786 1043.34 473.015 1042.63 466.943C1046.17 466.943 1049.72 466.943 1048.3 462.894C1051.14 460.87 1056.81 458.845 1053.27 454.798C1054.68 453.449 1056.1 452.099 1057.52 451.423C1059.65 450.749 1062.49 446.701 1065.32 446.026C1063.19 444.002 1060.36 445.351 1057.52 446.701C1060.36 441.978 1072.42 439.278 1071 433.881C1069.58 433.881 1067.45 433.881 1066.74 434.555C1064.62 427.808 1061.78 425.108 1056.1 432.531C1053.98 427.808 1046.17 426.457 1044.75 431.182C1044.05 430.508 1042.63 430.508 1041.92 429.832C1041.92 431.182 1041.21 432.531 1042.63 434.555C1039.79 435.904 1036.95 434.555 1034.83 432.531C1034.12 434.555 1034.12 436.579 1035.54 438.602C1034.83 438.602 1034.12 437.928 1033.41 437.928C1031.99 439.278 1032.7 439.278 1030.57 438.602C1029.15 439.278 1027.02 439.278 1026.32 439.278C1019.93 443.328 1020.64 446.026 1022.06 452.099C1024.19 452.099 1025.61 452.774 1027.02 452.099C1032.7 458.845 1038.37 450.749 1044.05 450.749C1039.08 458.845 1024.19 460.194 1019.93 452.774C1018.51 453.449 1017.8 452.775 1017.09 453.449C1017.09 451.423 1015.68 449.399 1015.68 448.049C1014.26 449.399 1011.42 456.147 1011.42 458.171C1010.71 462.22 1014.97 464.244 1013.55 468.292C1016.38 467.618 1017.09 468.292 1018.51 466.268C1019.93 471.665 1013.55 472.34 1019.93 477.065C1022.77 474.365 1027.02 473.015 1027.02 468.292C1027.73 464.92 1022.77 461.545 1027.02 458.845C1027.73 461.545 1029.15 464.244 1029.86 466.268C1036.25 468.292 1025.61 473.015 1026.32 477.065C1025.61 477.065 1024.9 476.39 1024.19 477.065C1029.15 477.065 1032.7 479.763 1031.28 484.486C1029.15 482.462 1028.44 480.437 1025.61 479.088C1026.32 479.763 1026.32 482.462 1027.02 483.812C1024.19 485.836 1022.06 489.21 1019.22 485.836C1019.22 486.511 1018.51 487.186 1017.8 488.535C1016.38 486.511 1014.26 485.836 1011.42 485.836C1011.42 485.161 1012.13 485.161 1012.13 484.486" fill="#574778"/>
<path d="M1026.32 505.403C1024.19 506.752 1024.19 508.777 1022.77 510.801C1019.22 518.223 1023.48 516.198 1026.32 521.597C1025.61 522.272 1024.19 522.272 1023.48 522.947C1026.32 524.295 1029.15 523.621 1031.28 520.923C1031.99 525.645 1036.25 526.32 1039.08 522.947C1039.79 525.645 1040.5 525.645 1040.5 527.669C1044.05 526.32 1046.17 530.369 1042.63 533.068C1044.05 532.394 1045.47 532.394 1046.88 531.718C1046.88 533.068 1046.88 533.742 1046.88 535.092C1047.59 534.417 1048.3 533.742 1048.3 533.068C1053.27 541.165 1046.88 539.139 1042.63 543.189C1043.34 543.864 1044.75 545.887 1046.88 546.562C1046.17 546.562 1044.75 547.237 1044.05 547.237C1046.17 548.586 1048.3 549.261 1051.14 549.935C1051.85 553.311 1053.98 557.358 1057.52 554.66C1058.94 557.358 1060.36 560.056 1063.9 558.708C1063.19 556.684 1061.07 553.986 1059.65 551.959C1061.07 553.311 1063.19 553.986 1064.62 554.66C1066.74 550.61 1058.94 542.514 1058.94 538.464C1061.07 539.139 1063.19 541.165 1064.62 543.189C1065.32 541.837 1066.74 539.139 1067.45 537.79C1063.19 536.44 1054.68 528.344 1062.49 528.344C1061.78 524.97 1059.65 520.923 1055.39 522.272C1053.98 519.573 1046.17 512.15 1043.34 512.825C1046.17 505.403 1037.66 510.801 1036.95 514.849C1031.28 509.452 1039.79 510.127 1041.21 506.752C1039.08 504.728 1036.25 505.403 1034.83 508.103C1034.12 507.428 1033.41 506.752 1033.41 505.403C1029.15 507.428 1028.44 514.849 1031.28 516.874C1023.48 522.947 1029.15 506.752 1029.86 504.728C1029.15 504.054 1028.44 504.728 1028.44 504.728" fill="#574778"/>
<path d="M1031.99 643.051C1031.28 643.726 1030.57 645.075 1029.15 645.751C1031.99 646.424 1036.25 647.099 1039.08 647.099C1039.79 651.146 1043.34 651.821 1046.88 650.472C1045.47 649.124 1041.92 643.726 1040.5 643.051C1039.08 642.377 1036.95 643.726 1034.83 642.377" fill="#574778"/>
<path d="M1048.3 649.797C1047.59 650.472 1046.88 651.146 1046.88 652.495C1049.01 652.495 1049.72 653.17 1051.14 653.17C1053.27 653.17 1056.81 653.17 1058.94 651.146C1056.81 649.124 1051.85 648.448 1049.01 648.448" fill="#574778"/>
<path d="M1049.72 663.29C1049.01 663.966 1049.01 663.966 1049.01 665.318C1049.01 665.318 1046.88 663.966 1047.59 663.966C1045.47 666.667 1044.75 670.04 1044.05 673.413C1043.34 673.413 1042.63 673.413 1041.21 673.413C1042.63 676.788 1043.34 679.488 1041.92 681.51C1037.66 682.185 1039.08 685.558 1037.66 688.933C1041.21 692.306 1039.79 698.38 1041.92 702.428C1042.63 703.102 1046.17 706.475 1046.88 707.15C1049.01 708.499 1049.01 712.549 1051.85 708.499C1053.98 711.199 1055.39 713.898 1052.56 715.922C1061.78 721.321 1044.75 738.863 1052.56 746.961C1051.85 746.961 1051.85 746.961 1051.14 746.961C1049.01 749.659 1048.3 755.058 1049.01 758.431C1047.59 758.431 1045.47 759.78 1044.75 759.78C1046.88 763.828 1044.05 766.528 1046.17 769.902C1044.75 773.275 1045.47 777.325 1046.88 780.023C1047.59 780.023 1048.3 779.347 1049.01 779.347C1049.72 784.745 1056.81 786.094 1060.36 789.47C1061.07 788.795 1061.78 788.12 1061.78 788.12C1059.65 786.094 1058.94 783.396 1058.94 780.698C1059.65 780.698 1060.36 780.698 1061.07 781.372C1056.1 774.624 1056.81 773.275 1063.19 767.203C1060.36 764.503 1061.78 760.455 1059.65 757.081C1063.19 755.733 1068.16 754.384 1063.19 750.334C1066.74 748.31 1071 751.683 1073.83 748.983C1075.96 746.961 1075.25 740.211 1073.12 738.188C1074.54 738.188 1076.67 737.514 1078.09 737.514C1084.47 743.589 1082.35 735.489 1083.76 733.466C1085.89 730.764 1090.15 732.117 1090.15 727.391C1095.11 724.694 1085.89 720.647 1093.69 717.946C1095.82 720.647 1098.66 719.971 1101.49 720.647C1101.49 719.295 1102.2 717.271 1101.49 715.922C1108.59 711.199 1102.2 707.824 1104.33 702.428C1105.75 699.055 1117.81 697.027 1112.84 690.282C1111.42 690.282 1111.42 690.957 1110.71 691.633C1110.71 690.282 1110.71 688.933 1110.71 688.26C1109.3 688.26 1108.59 688.933 1107.88 688.933C1107.88 688.26 1107.88 688.26 1107.88 687.584C1105.04 688.26 1101.49 687.584 1100.08 684.883C1097.24 685.558 1094.4 683.534 1091.56 686.232C1091.56 684.883 1091.56 684.209 1091.56 683.534C1090.86 683.534 1090.15 684.209 1089.44 683.534C1086.6 682.185 1085.18 679.488 1086.6 676.115C1085.89 676.788 1084.47 676.788 1084.47 677.462C1084.47 676.788 1084.47 674.762 1083.76 674.088C1080.93 674.762 1080.22 674.762 1078.8 672.065C1078.09 672.738 1077.38 672.738 1076.67 673.413C1075.96 672.738 1075.96 672.065 1075.96 672.065C1075.25 672.065 1074.54 672.738 1073.83 672.738C1072.42 670.04 1070.29 667.341 1068.16 665.318C1067.45 665.992 1064.61 666.667 1063.9 666.667C1063.9 665.992 1063.19 664.643 1063.19 663.966C1063.19 665.318 1061.78 666.667 1061.78 668.015C1058.94 667.341 1055.39 665.318 1054.68 661.942C1054.68 662.617 1053.27 663.966 1053.27 663.966" fill="#574778"/>
<path d="M1200.08 729.415C1198.66 731.44 1200.08 733.466 1202.92 733.466C1202.92 734.815 1203.63 736.839 1203.63 738.188C1204.33 738.188 1205.04 737.514 1205.75 737.514C1206.46 737.514 1206.46 738.863 1207.88 738.863C1207.88 738.188 1210.01 736.839 1210.72 734.815C1217.81 740.887 1222.07 734.815 1226.32 729.415C1225.61 728.742 1224.9 726.718 1223.48 726.718C1225.61 724.694 1227.74 722.67 1231.29 721.997C1229.16 719.971 1229.16 717.271 1229.16 714.573C1230.58 712.549 1229.87 713.225 1231.29 711.874L1232 712.549C1233.41 707.15 1242.64 705.801 1237.67 699.729C1238.38 699.729 1238.38 699.055 1239.09 698.38C1234.83 696.354 1237.67 692.306 1236.25 688.26L1237.67 689.607C1237.67 688.933 1238.38 687.584 1239.09 686.91C1239.09 687.584 1239.8 687.584 1239.8 688.26C1240.51 687.584 1240.51 686.232 1241.22 686.232C1241.93 686.232 1241.93 686.91 1243.34 686.232C1246.18 682.185 1241.93 678.812 1248.31 676.115C1249.73 676.788 1250.44 676.788 1251.15 676.788C1251.15 676.115 1251.15 675.437 1251.15 674.088C1256.11 670.714 1256.11 667.341 1258.24 662.617C1255.4 661.942 1252.56 663.29 1251.15 665.992C1249.73 663.966 1247.6 662.617 1246.18 661.268C1244.76 661.942 1243.34 661.942 1241.93 661.942C1242.64 659.244 1244.76 657.22 1246.89 660.593C1248.31 659.918 1249.02 659.244 1250.44 659.244C1248.31 655.87 1244.76 655.87 1243.34 658.569C1236.96 655.87 1225.61 639.001 1227.74 632.255C1227.74 632.255 1228.45 634.279 1228.45 634.954C1228.45 633.604 1228.45 632.255 1228.45 630.904C1231.29 632.93 1236.96 642.377 1236.96 646.424C1239.8 646.424 1244.05 653.847 1245.47 656.545C1247.6 657.896 1247.6 657.22 1249.02 659.918C1251.85 658.569 1255.4 657.896 1258.24 657.22C1261.08 655.87 1259.66 650.472 1264.62 655.196C1266.75 653.17 1268.17 650.472 1267.46 647.773C1268.17 647.099 1268.88 647.099 1269.59 645.751C1269.59 643.726 1268.88 641.025 1265.33 639.676C1264.62 641.025 1263.2 641.7 1263.2 642.377C1261.78 641.7 1253.98 639.001 1253.98 638.327C1251.15 635.628 1250.44 628.88 1254.69 633.604C1257.53 632.93 1263.2 638.328 1265.33 639.676C1268.17 640.35 1271 639.001 1273.13 636.977C1273.13 638.328 1274.55 639.001 1274.55 641.025C1277.39 639.676 1278.1 639.676 1277.39 636.977C1279.52 637.652 1280.93 639.676 1280.93 642.377C1281.64 641.7 1283.77 641.7 1284.48 641.025C1285.19 642.377 1285.19 643.051 1285.19 643.726C1285.9 643.726 1286.61 643.726 1286.61 643.051C1286.61 646.424 1287.32 649.797 1291.57 646.424C1292.99 649.797 1289.45 659.244 1296.54 658.569C1297.25 663.29 1297.96 665.992 1300.08 668.691C1302.92 664.643 1303.63 657.22 1307.89 655.196C1307.18 654.523 1307.89 652.495 1307.18 651.821C1314.27 650.472 1315.69 649.797 1320.65 645.751C1320.65 645.751 1320.65 646.424 1320.65 647.099C1321.36 646.424 1322.78 645.751 1323.49 645.751C1324.2 645.751 1323.49 647.099 1324.2 647.099C1325.62 647.099 1325.62 646.424 1326.33 647.099C1326.33 647.773 1326.33 649.124 1325.62 649.797C1328.45 650.472 1329.16 653.17 1329.87 655.87C1335.55 652.495 1337.67 660.593 1337.67 663.966C1338.38 670.04 1336.26 672.738 1344.06 675.437C1342.64 673.413 1340.51 672.738 1339.8 670.714C1339.09 667.341 1339.8 668.015 1339.8 665.318C1339.8 663.29 1337.67 659.918 1339.09 658.569C1341.93 655.196 1342.64 661.942 1342.64 663.29C1342.64 662.617 1343.35 662.617 1344.06 662.617C1344.06 663.29 1344.77 664.643 1344.77 664.643C1346.19 663.29 1348.31 661.942 1349.02 659.918C1348.31 661.268 1348.31 663.29 1347.6 664.643C1349.02 663.29 1351.15 662.617 1352.57 661.268C1353.28 661.268 1354.7 661.942 1354.7 661.942C1354.7 661.268 1355.4 659.918 1355.4 659.918C1350.44 661.942 1349.02 653.847 1351.15 652.495C1351.15 653.17 1351.15 653.847 1350.44 653.847C1349.02 652.495 1349.02 651.146 1349.02 650.472C1351.86 650.472 1355.4 649.124 1354.7 645.751C1360.37 647.099 1367.46 641.7 1369.59 636.977C1370.3 637.652 1371.01 639.001 1371.01 639.676C1371.01 638.328 1371.72 636.977 1371.72 635.628C1373.14 634.279 1374.55 632.255 1375.26 630.229C1370.3 626.856 1368.17 624.159 1374.55 620.11C1373.14 618.758 1373.14 618.758 1371.01 618.084C1370.3 618.758 1371.01 619.433 1370.3 620.11C1368.17 617.409 1368.17 614.711 1371.72 614.037C1371.72 614.711 1371.72 615.386 1371.72 616.06C1373.84 612.687 1375.97 612.687 1377.39 616.06C1377.39 615.386 1380.23 614.037 1380.94 613.361C1380.94 618.084 1378.81 620.11 1380.23 625.507C1382.36 624.832 1383.77 624.159 1385.9 622.134C1385.9 622.808 1385.19 623.483 1385.19 624.159C1390.87 619.433 1385.9 618.758 1385.19 614.037C1385.9 613.361 1386.61 613.361 1387.32 613.361C1386.61 612.013 1386.61 609.988 1385.9 608.637C1386.61 608.637 1389.45 607.963 1390.16 607.963C1392.28 609.314 1392.28 608.637 1393.7 609.314C1394.41 608.637 1394.41 607.963 1394.41 606.613C1405.05 604.59 1400.8 590.421 1406.47 585.021C1409.31 587.719 1409.31 598.516 1407.18 601.216C1408.6 601.216 1409.31 601.216 1410.73 600.542C1407.89 594.468 1415.69 582.998 1407.89 580.3C1408.6 578.275 1407.89 576.926 1407.89 574.9C1407.18 577.601 1405.76 579.624 1403.63 580.3C1400.8 575.574 1395.83 576.25 1401.51 570.853C1403.63 568.829 1412.14 562.081 1414.27 563.429C1414.98 562.754 1415.69 562.754 1416.4 562.081C1418.53 571.527 1431.29 561.406 1432.71 556.684C1438.39 560.731 1438.39 555.334 1444.77 554.66C1441.22 562.081 1432 567.479 1430.58 575.574C1430.58 575.574 1432 579.624 1432 580.974C1432 582.323 1431.29 584.347 1430.58 586.371C1429.17 590.421 1427.04 593.119 1424.2 597.166C1434.13 593.119 1434.13 581.648 1442.64 576.25C1441.93 575.574 1441.93 573.551 1440.51 572.876C1442.64 570.853 1444.06 564.779 1444.77 561.406C1445.48 562.081 1447.61 562.754 1448.32 563.429C1449.02 559.382 1452.57 560.731 1455.41 559.382C1458.24 558.032 1460.37 555.334 1463.21 554.66C1463.21 555.334 1463.21 556.009 1463.21 556.009C1463.92 554.66 1466.05 553.308 1466.05 551.284H1466.76C1467.47 551.959 1466.76 552.634 1467.47 552.634C1468.88 551.959 1469.59 551.284 1470.3 549.261C1468.17 549.261 1468.17 547.911 1466.05 547.237C1466.05 546.562 1466.05 545.887 1466.05 545.213C1466.76 545.887 1468.17 545.887 1469.59 546.562C1470.3 543.864 1472.43 539.139 1473.85 543.864C1475.27 543.864 1476.69 544.538 1478.81 543.189C1478.1 543.864 1478.81 545.213 1478.81 546.562C1480.23 547.911 1482.36 548.586 1483.78 547.911C1483.07 547.237 1483.07 545.887 1483.07 545.213V545.887C1485.2 545.213 1485.91 543.189 1485.91 541.163C1485.2 541.837 1484.49 541.163 1483.07 541.837C1483.07 540.488 1483.07 539.139 1483.78 538.464C1482.36 538.464 1480.94 538.464 1479.52 539.814C1479.52 538.464 1478.1 536.44 1478.81 535.092C1478.1 535.766 1476.69 535.766 1475.27 536.44C1475.27 535.766 1475.27 534.417 1475.98 533.742C1472.43 532.394 1465.34 527.669 1462.5 524.97C1458.24 529.692 1457.54 522.272 1452.57 524.295C1452.57 524.295 1453.28 524.295 1453.99 524.295C1453.28 526.994 1452.57 527.669 1455.41 529.692C1451.86 531.718 1449.02 529.692 1449.02 526.32C1444.77 528.344 1441.22 524.295 1437.68 528.344C1438.39 526.32 1437.68 524.295 1438.39 522.947C1436.97 522.272 1436.97 522.947 1436.26 523.621C1436.26 522.272 1436.26 520.923 1436.97 519.572C1434.84 519.572 1429.17 522.272 1427.75 521.597C1424.2 520.923 1423.49 518.223 1419.95 518.223C1420.65 516.873 1419.95 514.849 1419.95 514.174C1414.98 514.849 1407.89 508.102 1406.47 513.5C1403.63 514.849 1403.63 514.174 1402.92 516.873C1398.67 518.897 1395.83 515.523 1393.7 519.572C1393.7 518.898 1393 518.223 1393 518.223C1392.28 518.897 1390.87 520.247 1390.16 520.247C1383.77 517.547 1389.45 510.127 1383.07 506.752C1381.65 506.752 1380.23 506.077 1378.81 505.402C1378.1 507.426 1376.68 508.102 1375.97 509.451C1375.26 509.451 1374.55 508.776 1373.84 508.102C1371.72 509.451 1369.59 508.102 1368.17 506.077C1367.46 506.752 1366.04 507.426 1365.33 508.102C1365.33 506.752 1363.92 506.077 1363.92 504.728C1361.79 506.077 1358.95 505.402 1356.82 504.054C1353.99 505.402 1350.44 510.127 1347.6 508.776C1349.73 503.378 1356.82 500.68 1358.95 495.281C1358.24 495.281 1357.53 494.607 1356.11 493.931C1358.95 491.908 1358.95 489.884 1356.82 487.86C1354.7 485.836 1352.57 487.86 1349.73 489.21C1350.44 485.836 1349.02 484.485 1346.19 483.812C1346.19 483.136 1346.89 483.136 1346.89 482.462C1341.93 481.112 1336.96 491.233 1330.58 491.908C1331.29 491.233 1331.29 490.558 1332 489.884C1327.74 491.233 1322.78 494.607 1318.52 497.305C1318.52 497.981 1319.23 497.981 1319.94 498.657C1317.11 500.005 1317.11 500.68 1318.52 502.704C1315.69 503.378 1314.27 504.728 1314.98 506.752C1311.43 505.402 1307.89 506.752 1306.47 510.127L1307.18 512.825C1310.01 514.174 1310.01 514.849 1310.01 517.547C1315.69 518.223 1310.01 522.947 1308.59 525.645C1307.18 522.947 1308.59 518.223 1305.76 514.849C1305.05 515.523 1304.34 515.523 1304.34 516.198C1303.63 514.174 1302.21 513.5 1301.5 512.15C1299.38 514.174 1299.38 516.873 1299.38 520.247C1296.54 517.547 1297.96 513.5 1296.54 510.127C1298.66 514.849 1289.45 529.018 1299.38 528.344C1300.08 530.367 1300.08 531.718 1298.66 533.742C1297.96 531.718 1297.25 531.042 1295.83 529.692C1293.7 533.742 1295.83 544.538 1287.32 541.163C1298.66 540.488 1287.32 524.97 1292.28 521.597C1290.86 518.223 1294.41 516.873 1294.41 514.174C1294.41 511.476 1291.57 511.476 1292.99 508.102C1290.86 509.451 1290.15 508.776 1288.73 511.476C1288.73 510.127 1288.73 508.776 1288.73 508.102C1284.48 510.127 1283.06 524.295 1284.48 527.669C1285.19 527.669 1285.9 528.344 1286.61 528.344C1286.61 529.692 1286.61 530.367 1286.61 531.718" fill="#574778"/>
<path d="M1286.61 532.394C1286.61 533.068 1285.9 533.742 1285.19 534.417C1285.19 533.068 1283.77 532.394 1283.77 530.367C1282.35 530.367 1281.64 531.042 1280.22 531.042C1280.93 530.367 1280.93 529.018 1280.93 528.344C1280.22 528.344 1279.52 529.692 1278.81 529.018C1277.39 526.994 1275.26 525.645 1273.13 525.645C1272.42 522.947 1271.71 522.272 1268.88 522.272C1270.3 524.296 1274.55 532.394 1268.17 529.018C1266.04 531.042 1265.33 530.367 1262.49 531.042C1262.49 530.367 1262.49 529.692 1262.49 529.018C1259.66 530.367 1251.85 535.766 1251.15 539.139C1249.02 538.464 1247.6 536.44 1246.18 534.417C1249.73 532.394 1249.73 530.367 1246.18 529.692C1243.34 534.417 1248.31 541.163 1241.22 540.488C1239.8 541.837 1238.38 543.864 1237.67 545.887C1236.96 545.887 1236.25 545.213 1234.83 545.213C1234.83 547.237 1233.41 547.911 1232.71 548.586C1228.45 544.538 1229.16 538.464 1223.48 535.092C1227.74 535.092 1229.87 539.139 1232 539.139C1235.54 539.814 1241.93 537.115 1236.25 535.092C1235.54 529.692 1229.87 524.97 1223.48 525.645C1224.19 524.97 1224.19 524.296 1224.9 523.621C1223.48 520.923 1220.65 518.223 1218.52 520.923C1216.39 518.897 1215.68 519.573 1212.85 518.897C1212.85 519.573 1212.85 520.923 1212.85 521.597C1211.43 521.597 1210.72 522.947 1207.88 522.272C1207.88 522.947 1207.88 523.621 1207.88 524.296C1205.04 525.645 1205.75 525.645 1204.33 527.668C1201.5 527.668 1198.66 529.018 1197.95 531.718C1198.66 531.718 1200.08 531.718 1200.08 531.718C1195.11 536.44 1195.11 539.814 1191.57 545.213C1189.44 549.261 1185.89 552.634 1183.77 556.009C1178.09 562.081 1183.06 564.104 1182.35 570.177C1185.89 568.154 1185.89 564.781 1190.15 564.104C1190.86 565.456 1191.57 566.805 1191.57 568.154C1191.57 568.154 1192.99 566.805 1192.28 566.805C1192.28 569.503 1192.28 571.527 1194.41 573.551C1195.82 571.527 1196.53 570.177 1196.53 567.479C1198.66 567.479 1200.79 565.456 1203.63 564.781C1202.92 562.754 1202.21 560.731 1200.79 560.056C1200.08 558.707 1200.08 556.684 1200.08 555.334C1204.33 553.986 1207.88 547.911 1205.75 544.538C1206.46 543.864 1208.59 541.837 1209.3 541.837C1210.01 541.837 1212.14 541.165 1212.85 541.165C1214.26 543.864 1214.26 543.189 1216.39 545.887C1214.26 546.562 1213.56 547.911 1212.14 549.935C1212.14 549.935 1210.72 549.261 1210.01 549.261C1207.88 553.986 1209.3 558.707 1207.88 563.429C1209.3 561.406 1211.43 560.731 1213.56 560.731C1214.26 560.731 1214.26 559.382 1215.68 558.707C1215.68 559.382 1216.39 560.731 1217.1 561.406C1217.1 560.731 1218.52 560.056 1218.52 560.056C1220.65 562.754 1219.23 564.104 1215.68 564.104C1215.68 564.781 1215.68 566.13 1215.68 566.805C1213.56 565.456 1212.14 565.456 1209.3 566.805C1210.01 566.805 1211.43 566.805 1212.14 567.479C1212.85 568.154 1212.85 568.829 1214.26 569.503C1213.56 570.177 1211.43 571.527 1211.43 572.201C1210.01 572.201 1210.01 571.527 1208.59 571.527C1207.88 571.527 1207.88 572.201 1207.88 572.876C1207.17 572.201 1206.46 571.527 1206.46 571.527C1205.75 573.551 1205.75 576.251 1206.46 578.275C1203.63 578.95 1201.5 580.299 1199.37 581.648C1198.66 580.974 1196.53 579.624 1195.11 578.275C1195.11 578.95 1195.11 578.95 1195.11 579.624C1195.11 579.624 1193.7 578.95 1193.7 579.624C1193.7 580.299 1192.99 581.648 1192.99 582.998C1190.15 582.323 1188.02 580.974 1188.02 577.601C1189.44 577.601 1190.15 576.926 1191.57 576.926C1191.57 576.251 1190.86 575.577 1190.86 574.225C1191.57 574.225 1192.28 574.225 1193.7 574.225C1191.57 567.479 1185.19 575.577 1187.31 579.624C1181.64 581.648 1178.09 584.347 1176.67 590.421C1173.13 590.421 1171 592.445 1167.45 590.421C1166.75 591.095 1167.45 591.769 1167.45 592.445C1166.75 591.769 1166.04 591.095 1165.33 590.421C1163.2 595.143 1168.16 595.143 1169.58 597.843C1171 600.541 1166.75 601.891 1171 604.59C1170.29 605.264 1168.16 606.613 1166.75 606.613C1164.62 603.914 1166.04 604.59 1162.49 605.264C1160.36 603.24 1158.24 605.264 1155.4 606.613C1154.69 607.963 1155.4 609.988 1156.11 611.338C1161.07 612.013 1156.82 618.758 1162.49 620.11C1168.16 621.459 1170.29 616.06 1171.71 612.013C1174.55 611.338 1175.97 608.64 1176.67 606.613C1177.38 607.963 1179.51 609.988 1180.22 611.338C1181.44 610.566 1181.96 610.677 1182.58 610.787C1183.04 610.87 1183.56 610.952 1184.48 610.663C1184.48 611.338 1184.48 612.687 1184.48 613.361C1186.6 610.663 1185.89 606.613 1184.48 603.914C1186.6 603.914 1185.89 604.59 1186.6 605.264C1187.31 604.59 1188.02 604.59 1188.02 604.59C1188.73 605.264 1190.15 607.288 1190.15 607.963C1190.86 607.963 1192.99 607.963 1193.7 607.963C1192.99 609.988 1194.41 612.013 1196.53 613.361C1200.79 607.963 1192.28 607.288 1195.11 601.891C1195.82 602.566 1196.53 603.914 1197.24 604.59C1197.95 603.914 1198.66 603.24 1199.37 602.566C1200.08 605.264 1201.5 605.939 1203.63 605.939C1201.5 606.613 1201.5 606.613 1203.63 609.314C1203.63 609.314 1204.33 608.64 1205.04 608.64C1206.46 614.711 1205.75 614.037 1204.33 619.435C1207.17 619.435 1209.3 620.785 1210.01 622.808C1212.85 621.459 1211.43 621.459 1214.97 621.459C1214.26 620.785 1214.26 618.758 1213.56 618.084C1213.91 617.746 1214.44 617.915 1214.97 618.083C1215.51 618.252 1216.04 618.42 1216.39 618.084C1216.39 617.409 1215.68 616.734 1217.1 616.734C1217.1 616.734 1217.81 618.084 1217.81 618.758C1219.94 619.435 1222.07 620.11 1224.19 618.758C1224.9 623.483 1229.16 622.134 1232.71 620.785C1232.71 623.483 1231.29 624.832 1229.87 626.856C1229.16 626.856 1228.45 626.856 1227.03 626.856C1227.74 627.531 1227.74 629.553 1227.74 630.229C1227.03 630.904 1224.19 631.578 1222.78 631.578C1222.78 630.904 1222.07 630.229 1221.36 629.553C1219.23 630.229 1218.52 630.229 1217.1 630.229C1216.39 630.904 1215.68 632.255 1214.97 632.255C1212.14 630.904 1207.17 622.808 1206.46 629.553C1205.75 628.88 1205.75 628.205 1205.04 628.205C1205.04 628.88 1204.33 630.904 1204.33 632.255C1200.79 630.229 1195.11 627.531 1192.28 625.507C1192.28 626.181 1192.28 626.856 1192.28 627.531C1190.86 626.856 1190.15 625.507 1189.44 624.832C1189.44 623.483 1189.44 622.808 1190.15 621.459C1190.15 621.459 1189.44 618.758 1188.73 618.084C1185.19 618.084 1183.06 620.11 1184.48 622.808C1180.22 622.134 1175.26 615.386 1173.84 622.808C1171 620.11 1171.71 621.459 1168.87 622.808C1168.16 622.808 1167.45 622.134 1166.75 621.459C1166.04 622.134 1166.04 622.134 1165.33 622.808C1164.62 622.134 1163.91 622.134 1163.2 621.459C1163.2 622.808 1162.49 624.159 1162.49 625.507C1158.24 622.808 1149.72 634.278 1151.85 638.327C1148.3 639.001 1145.47 641.7 1148.3 645.075C1147.6 645.075 1146.89 645.075 1146.18 645.075C1144.05 647.773 1144.05 658.568 1145.47 662.617C1144.76 664.642 1146.18 665.992 1149.01 666.667C1149.72 666.667 1150.43 665.992 1151.14 665.318C1151.14 668.691 1153.98 671.389 1155.4 673.413C1156.82 673.413 1156.82 672.738 1158.24 672.065C1159.65 676.788 1163.2 674.088 1164.62 670.714C1166.04 671.389 1165.33 671.389 1166.04 672.738C1166.75 672.738 1167.45 672.065 1168.16 672.065C1168.87 672.738 1168.87 673.413 1170.29 674.088C1171 673.413 1171.71 672.065 1171.71 671.389C1174.55 672.738 1176.67 672.065 1178.09 670.04C1178.8 671.389 1178.8 672.065 1178.8 672.738C1183.06 672.738 1188.73 674.762 1186.6 679.488C1187.31 679.488 1188.73 680.16 1189.44 680.16C1190.15 680.836 1190.86 683.534 1190.86 684.883C1189.44 684.883 1188.73 685.558 1188.02 685.558C1192.28 690.282 1200.08 703.102 1190.15 707.15C1192.28 708.499 1192.28 709.852 1193.7 711.199C1192.28 713.898 1192.99 718.619 1196.53 719.295C1195.82 721.997 1196.53 722.67 1196.53 725.369C1196.53 725.369 1195.82 724.694 1195.11 724.694C1196.53 726.043 1195.82 726.718 1198.66 727.391C1198.66 728.742 1199.37 729.416 1199.37 730.091L1286.61 532.394Z" fill="#574778"/>
<path d="M1195.11 473.69C1195.82 473.015 1196.53 472.34 1197.24 471.665C1197.24 473.015 1197.95 473.69 1197.24 475.713C1197.95 475.713 1198.66 474.365 1199.37 475.713C1198.66 478.413 1192.28 479.762 1197.24 481.786C1195.82 485.161 1197.24 487.86 1199.37 490.558C1203.63 485.835 1201.5 479.088 1202.92 473.015C1204.33 475.041 1206.46 479.088 1206.46 482.461C1207.88 482.461 1210.01 482.461 1211.43 481.786C1207.17 477.739 1209.3 468.292 1202.92 466.943C1202.21 466.268 1203.63 465.594 1202.92 464.919C1202.92 464.919 1201.5 465.594 1200.79 465.594C1201.5 462.894 1200.79 460.87 1197.95 459.52C1195.82 462.22 1198.66 465.594 1196.53 468.292C1196.53 466.268 1195.11 464.244 1194.41 462.22C1194.41 462.22 1194.41 462.894 1193.7 462.894C1193.7 461.545 1193.7 461.545 1192.28 460.87C1189.44 462.22 1185.89 464.244 1188.73 466.943C1188.02 469.641 1188.02 471.665 1190.86 471.665C1188.73 474.365 1190.15 474.365 1192.28 476.39C1193.7 475.041 1195.11 473.69 1196.53 471.665" fill="#574778"/>
<path d="M1202.92 457.496C1202.21 458.171 1201.5 458.845 1200.79 459.52C1201.5 460.195 1202.21 460.194 1202.92 460.194C1202.92 461.545 1202.92 462.894 1203.63 463.569C1204.33 462.894 1207.17 462.894 1208.59 462.22C1207.88 464.244 1209.3 463.569 1206.46 465.594C1207.17 466.268 1208.59 467.618 1209.3 468.292C1210.01 468.292 1210.72 466.943 1211.43 466.943C1211.43 466.943 1211.43 467.618 1212.85 467.618C1214.97 464.92 1214.97 462.22 1217.1 459.52C1215.68 458.171 1212.85 457.496 1211.43 456.821C1210.01 458.845 1208.59 458.171 1207.88 459.52C1206.46 458.845 1204.33 457.496 1203.63 456.821" fill="#574778"/>
<path d="M1260.37 451.422C1260.37 452.098 1260.37 452.773 1260.37 454.124C1261.08 453.447 1263.2 453.447 1263.91 452.773C1263.91 454.124 1264.62 455.472 1263.91 456.147C1266.04 454.798 1268.17 454.124 1269.59 453.447C1270.3 451.422 1270.3 451.422 1268.88 449.399C1267.46 450.073 1266.04 450.747 1265.33 451.422C1263.91 446.701 1269.59 448.049 1269.59 444.002C1265.33 444.002 1261.78 448.724 1260.37 450.747" fill="#574778"/>
<path d="M1275.26 450.073C1274.55 451.423 1273.84 452.099 1273.84 453.447C1274.55 453.447 1275.26 452.773 1275.97 452.773C1276.68 453.447 1275.97 454.798 1276.68 455.473C1279.52 454.798 1280.93 451.423 1282.35 448.725C1279.52 448.049 1277.39 449.399 1275.26 448.049" fill="#574778"/>
<path d="M1304.34 450.073C1303.63 451.423 1302.92 452.099 1302.21 452.773C1304.34 453.447 1304.34 452.773 1306.47 452.099C1306.47 450.748 1305.76 450.748 1304.34 450.073Z" fill="#574778"/>
<path d="M1283.77 484.484C1281.64 488.534 1274.55 491.233 1269.59 492.582C1268.17 494.606 1266.04 495.957 1266.75 497.98C1265.33 500.005 1263.91 502.03 1261.08 504.053C1261.78 504.728 1261.78 505.402 1262.49 506.076C1259.66 507.426 1253.98 514.848 1258.95 516.198C1258.24 517.547 1258.24 519.572 1258.24 520.923C1258.95 520.247 1260.37 520.247 1261.08 519.572C1261.08 520.923 1260.37 521.597 1260.37 522.271C1262.49 524.296 1265.33 524.97 1267.46 523.621C1265.33 522.271 1264.62 518.897 1264.62 515.523C1264.62 512.825 1265.33 506.751 1266.04 505.402C1266.75 504.053 1273.13 495.957 1274.55 494.606C1278.1 492.582 1280.93 495.281 1283.77 490.558C1283.06 490.558 1283.06 489.884 1282.35 489.884C1285.9 488.534 1286.61 486.51 1285.19 483.812L1283.77 484.484" fill="#574778"/>
<path d="M1054.68 484.486C1054.68 485.161 1052.56 487.186 1051.14 487.86C1051.85 487.86 1053.27 487.86 1054.68 487.186C1054.68 487.86 1055.39 488.534 1056.1 489.21C1056.1 491.908 1055.39 490.558 1057.52 492.582H1058.23C1058.23 491.908 1058.23 491.233 1058.94 491.233C1061.78 492.582 1064.62 491.233 1065.32 488.534C1066.03 489.21 1067.45 490.558 1067.45 491.908C1068.16 491.233 1069.58 490.558 1070.29 489.884C1071 491.233 1072.42 492.582 1072.42 494.607C1073.12 494.607 1073.83 493.931 1075.25 493.931C1075.25 495.957 1075.25 497.981 1073.83 500.005C1074.54 500.005 1075.96 500.005 1076.67 500.005C1080.93 504.054 1077.38 509.452 1080.22 513.5C1078.8 514.848 1079.51 516.198 1080.22 518.897C1083.76 517.549 1087.31 520.923 1085.18 523.621C1083.76 522.272 1083.05 522.272 1081.64 520.923C1081.64 522.947 1081.64 524.296 1082.35 525.645C1083.05 525.645 1083.76 525.645 1084.47 525.645C1083.05 526.32 1082.35 527.669 1081.64 528.344C1082.35 528.344 1083.76 527.669 1084.47 527.669C1084.47 529.018 1084.47 530.369 1084.47 531.044C1075.96 536.44 1083.76 548.586 1085.89 553.986C1085.89 553.986 1086.6 553.986 1087.31 553.986C1088.02 556.009 1089.44 557.358 1090.15 559.382C1090.86 558.708 1091.56 558.708 1091.56 558.708C1092.27 562.081 1096.53 564.104 1099.37 564.781C1099.37 563.429 1099.37 560.731 1098.66 558.708C1102.91 556.009 1100.08 549.261 1102.2 545.213C1102.91 545.213 1102.91 545.887 1102.91 545.887C1104.33 545.887 1104.33 545.213 1105.75 545.213C1105.75 543.864 1107.17 542.514 1107.88 540.488C1108.59 541.165 1107.88 541.165 1109.3 541.837C1110.01 541.165 1110.01 539.814 1110.71 539.139C1111.42 539.814 1112.13 540.488 1112.84 540.488C1114.97 539.814 1116.39 537.115 1115.68 534.417C1117.1 533.742 1117.81 533.742 1118.52 533.068C1119.23 533.068 1119.94 533.742 1120.64 534.417C1124.19 531.718 1123.48 526.994 1124.9 523.621C1124.9 524.296 1126.32 525.645 1126.32 526.32C1130.57 525.645 1130.57 520.923 1127.74 518.223C1128.44 517.549 1129.15 517.549 1129.86 516.874C1131.28 518.897 1132.7 520.248 1131.99 522.272C1133.41 520.923 1134.12 520.248 1134.83 517.549C1136.96 514.848 1131.28 510.127 1134.12 504.728C1134.83 506.078 1136.25 506.752 1136.96 507.428C1137.67 506.752 1138.38 506.078 1139.08 505.403C1138.38 504.054 1138.38 502.704 1137.67 501.355C1136.96 501.355 1136.96 501.355 1136.25 502.03C1136.25 500.005 1136.96 500.005 1135.54 497.981C1139.08 497.981 1139.08 497.305 1139.08 494.607C1141.21 493.257 1141.21 491.908 1141.92 489.884C1139.79 488.534 1139.08 486.511 1138.38 485.161C1139.08 485.161 1139.08 484.486 1139.79 484.486L1140.5 485.161C1141.21 484.486 1141.92 483.136 1141.92 481.786C1139.08 479.763 1135.54 476.39 1135.54 472.34C1136.25 472.34 1136.96 472.34 1136.96 472.34L1137.67 470.316C1138.38 469.641 1138.38 469.641 1138.38 468.292C1139.08 466.943 1139.79 464.919 1140.5 462.894C1140.5 463.568 1140.5 464.244 1141.21 464.919C1139.08 461.545 1139.79 459.52 1143.34 459.52V458.171C1143.34 457.496 1143.34 457.496 1143.34 458.171C1144.05 458.845 1145.47 459.52 1146.18 460.194C1145.47 458.171 1146.89 458.171 1145.47 456.147C1146.89 456.147 1147.6 454.798 1148.3 454.798C1146.18 451.423 1150.43 449.399 1151.85 448.049C1151.14 447.375 1151.14 449.399 1151.14 449.399C1151.14 448.049 1151.85 446.701 1151.85 446.026C1151.14 445.351 1151.14 446.026 1150.43 446.701C1150.43 447.375 1151.14 445.351 1151.14 444.676C1150.43 444.676 1149.72 444.676 1149.72 444.676C1149.01 444.002 1149.01 442.652 1148.3 441.978C1146.89 441.304 1146.89 441.978 1146.18 441.978C1146.18 441.978 1146.18 441.304 1145.47 441.304C1144.76 442.652 1143.34 443.327 1142.63 445.351V444.002C1141.92 445.351 1140.5 446.701 1139.79 448.049C1139.79 446.701 1139.08 445.351 1138.38 444.676C1136.25 446.701 1135.54 449.399 1134.12 452.098C1134.83 449.399 1135.54 446.701 1136.25 444.676C1135.54 444.676 1134.83 445.351 1134.12 445.351C1134.83 444.002 1134.83 441.978 1135.54 439.953C1134.83 441.304 1134.83 441.978 1134.12 442.652C1134.12 442.652 1134.12 441.304 1133.41 441.304C1132.7 443.327 1131.28 444.676 1129.15 446.026C1128.44 446.026 1127.74 446.026 1127.03 446.026C1127.74 444.676 1127.74 443.327 1129.15 441.978C1128.44 442.652 1126.32 443.327 1125.61 443.327C1124.9 442.652 1124.9 441.978 1124.9 441.304C1122.77 441.978 1120.64 441.304 1119.23 441.304C1119.94 436.579 1124.9 434.555 1128.44 437.928C1129.15 437.254 1129.86 435.904 1130.57 435.904L1131.28 436.579C1131.99 435.904 1132.7 435.23 1133.41 434.555C1132.7 433.205 1132.7 432.531 1131.99 431.182C1131.28 431.182 1130.57 431.182 1129.86 431.182C1129.86 430.508 1130.57 430.508 1130.57 429.832C1130.57 428.483 1129.15 427.808 1128.44 427.133C1129.15 427.133 1129.86 427.133 1130.57 427.133C1127.03 426.457 1124.9 427.808 1124.19 430.508C1122.06 429.157 1119.94 427.808 1118.52 425.783C1119.94 427.133 1122.77 425.783 1124.9 423.759C1122.77 423.085 1122.77 422.411 1119.94 423.085C1117.81 419.711 1114.26 420.386 1112.13 423.085C1111.42 423.085 1111.42 422.411 1111.42 422.411C1110.71 422.411 1110.71 423.085 1110.01 423.759C1109.3 423.085 1108.59 422.411 1107.88 422.411C1107.88 423.085 1107.88 423.759 1107.88 424.434C1105.04 425.783 1102.2 427.133 1098.66 425.783C1098.66 426.457 1098.66 427.808 1099.37 428.483C1097.24 428.483 1096.53 429.157 1095.11 429.157C1095.82 429.157 1095.82 428.483 1095.11 428.483C1090.15 431.182 1097.95 434.555 1096.53 439.278C1095.82 436.579 1094.4 433.205 1091.56 431.182C1092.27 433.881 1093.69 438.602 1092.27 439.278C1092.27 439.953 1092.99 440.628 1090.86 441.978C1090.15 439.278 1090.15 435.904 1088.73 433.205C1088.73 433.881 1088.73 435.23 1088.02 435.904C1088.02 435.904 1088.02 434.555 1086.6 434.555C1086.6 435.904 1086.6 437.254 1086.6 437.928C1086.6 437.254 1087.31 438.602 1085.89 439.953C1084.47 437.928 1083.05 437.928 1080.93 436.579C1080.22 437.928 1080.22 438.602 1080.22 439.278C1080.22 438.602 1080.22 438.602 1079.51 438.602C1078.8 440.628 1077.38 441.304 1075.96 442.652C1075.25 442.652 1074.54 441.978 1073.83 441.304C1070.29 445.351 1072.42 448.724 1068.87 452.098C1068.16 450.749 1066.03 449.399 1065.32 448.049C1066.03 449.399 1065.32 450.749 1066.03 452.098C1062.49 454.798 1058.94 457.496 1058.23 461.545C1061.07 463.568 1061.78 465.594 1061.07 468.967C1060.36 468.292 1057.52 467.618 1056.81 466.943C1056.81 472.34 1050.43 472.34 1049.72 477.739C1051.14 478.413 1050.43 477.739 1051.85 477.739C1053.27 478.413 1053.98 479.088 1056.81 479.088C1056.81 479.763 1056.81 481.111 1056.1 481.786C1056.81 481.786 1056.81 481.111 1057.52 481.111C1058.23 481.111 1057.52 482.462 1058.23 483.136C1058.94 483.136 1059.65 482.462 1060.36 482.462C1058.94 484.486 1056.81 485.161 1056.81 484.486H1054.68" fill="#574778"/>
<path d="M416.725 191.097C416.725 191.097 416.017 191.771 415.306 191.097C415.306 192.445 413.888 193.121 413.888 195.145C410.342 195.819 408.924 198.518 405.377 199.192C406.086 202.566 404.668 204.592 401.123 204.592C401.831 207.29 404.668 209.988 407.504 210.663C406.086 215.385 411.761 221.459 403.25 214.036C394.029 220.784 406.086 220.784 406.795 224.832C408.213 223.483 410.342 223.483 411.051 223.483C410.342 226.181 408.213 228.208 405.377 228.208C405.377 230.231 404.668 229.556 406.086 231.58C403.25 235.628 411.761 241.702 414.597 240.353C417.434 243.725 411.051 251.148 408.213 252.498C408.924 253.172 410.342 253.172 411.761 253.847C413.18 249.125 417.434 247.098 420.98 243.051C423.109 240.353 423.109 236.302 426.654 233.604C426.654 235.628 428.073 234.279 426.654 236.977C428.782 236.977 430.2 236.977 432.328 235.628C432.328 236.302 432.328 236.302 433.038 236.977C435.22 233.656 436.865 234.422 438.8 235.189C440.008 235.668 441.33 236.147 442.967 235.628C442.967 236.977 443.676 238.329 443.676 239.678C449.351 239.004 454.314 246.424 455.734 250.474C456.443 249.799 457.862 250.474 458.571 249.799C459.281 253.172 464.954 262.619 467.79 261.945C469.919 265.317 467.79 268.69 472.047 268.69C472.047 268.69 473.464 270.717 472.756 270.717C469.919 272.74 470.629 284.885 473.464 286.909C474.173 288.934 475.592 290.282 477.719 291.632C477.01 296.355 483.394 303.777 485.522 307.152C489.067 312.549 492.615 316.599 496.87 320.646C496.16 313.224 488.359 307.826 486.94 301.079C490.487 303.101 498.998 313.224 501.125 316.599C502.543 318.622 503.253 321.996 504.672 324.694C506.091 325.369 511.055 327.394 513.181 328.744C513.892 328.07 515.309 327.394 516.02 326.719C518.148 330.768 521.694 327.394 524.53 330.768C525.239 330.768 525.239 330.092 525.949 329.418C527.368 333.466 530.915 332.791 533.042 335.49C533.751 335.49 534.46 335.49 534.46 335.49C536.587 338.19 539.425 342.239 544.389 341.564C544.389 339.539 545.099 340.214 545.808 338.866C547.226 340.889 548.644 341.564 550.064 342.913C551.482 339.539 547.935 338.19 545.808 336.165C545.099 336.838 543.681 337.516 543.681 338.19C541.551 336.165 540.844 333.466 540.844 330.768C540.134 331.443 539.425 332.116 538.715 332.116C537.297 330.092 535.877 328.07 533.042 327.394C533.751 325.369 533.042 322.672 533.751 321.321C532.332 321.996 530.915 321.996 529.496 324.019C528.787 323.344 528.076 322.672 527.368 321.996C521.694 330.768 507.509 311.875 519.566 307.152C519.566 307.826 519.566 307.826 520.275 308.502C521.551 306.478 523.594 306.64 525.944 306.802C527.51 306.909 529.212 307.017 530.915 306.478C530.915 303.777 531.623 303.101 534.46 302.427C534.46 303.777 535.168 304.454 535.168 305.802C535.168 305.802 536.587 304.454 536.587 305.129C540.844 307.152 538.005 311.875 542.971 314.573C547.935 311.875 539.425 303.777 546.517 300.404C549.353 300.404 553.61 293.658 551.482 290.957C553.61 287.584 556.447 286.909 558.573 282.862C559.993 280.161 557.865 276.114 563.538 274.764C564.247 276.114 565.667 276.788 566.377 278.137C569.213 277.462 569.213 274.089 567.796 271.391C568.504 271.391 569.922 271.391 570.631 271.391C570.631 272.066 570.631 272.74 571.34 273.415C574.887 274.089 581.27 274.089 577.013 268.69C574.887 270.717 567.796 267.341 564.957 266.667C566.377 260.595 572.051 262.619 574.887 265.317C577.725 263.969 579.142 260.595 581.979 259.243C581.979 262.619 577.725 274.089 586.234 268.69C586.234 270.039 588.362 271.391 588.362 272.74C596.164 269.365 588.362 268.69 587.653 266.667C585.527 262.619 585.527 259.243 583.397 255.871C583.397 255.196 581.27 255.871 580.561 255.196C580.561 254.522 581.27 251.823 580.561 251.148C579.851 250.474 576.305 248.448 575.596 247.773C573.468 245.075 573.468 241.027 569.922 240.353C568.504 238.329 567.796 235.628 568.503 232.93C565.667 232.592 564.958 233.942 564.426 235.29C563.894 236.641 563.539 237.99 561.411 237.651C557.156 236.977 558.573 228.208 553.61 228.208C545.808 226.858 551.482 245.075 551.482 250.474C550.772 250.474 549.353 250.474 548.644 250.474C548.644 252.498 549.353 254.522 549.353 256.545C549.353 258.569 547.935 261.27 547.935 262.619C543.681 263.294 541.551 259.921 542.971 256.545C537.297 255.871 541.551 248.45 533.751 249.799C531.623 245.749 524.53 243.051 520.275 239.004C521.694 234.953 520.275 230.906 523.821 226.181C528.076 222.134 531.623 222.134 531.623 215.385C532.332 215.385 533.751 216.062 534.46 216.737C535.168 215.385 535.877 215.385 536.587 214.713C536.587 212.012 536.587 212.687 538.005 210.663C538.005 211.338 538.715 212.687 538.715 213.361C540.134 212.687 540.844 211.338 541.551 209.988C540.844 209.314 540.134 209.314 539.425 208.639C542.971 205.266 541.551 198.518 536.587 197.169C536.587 201.891 538.715 205.266 534.46 207.965C532.332 206.616 530.915 205.941 528.787 205.941C529.496 203.917 528.076 201.891 528.787 200.542C527.368 199.868 526.658 199.868 525.239 199.868C524.53 197.169 523.112 189.746 520.275 189.071C520.275 187.047 520.984 185.024 521.694 183.675C524.53 183.675 527.368 182.325 526.658 178.951C517.439 174.902 520.275 191.097 518.148 195.145C520.275 198.518 523.821 203.242 520.984 207.29C518.857 204.592 518.148 200.542 514.601 199.192C513.892 201.891 514.601 204.592 516.729 206.616C513.892 209.314 505.382 207.965 503.962 203.917C502.543 203.917 500.415 203.242 498.998 203.242C498.998 204.592 498.289 206.616 498.289 207.965C496.713 207.365 495.417 207.831 494.09 208.297C492.43 208.881 490.722 209.464 488.359 207.965C488.359 207.29 488.359 207.29 489.067 206.616C484.104 207.965 481.976 201.891 477.719 200.542C475.651 199.98 473.829 200.003 472.099 200.026C469.678 200.059 467.436 200.092 464.954 198.518C464.244 198.518 464.244 199.192 463.536 199.868C462.827 199.192 462.827 199.192 461.408 198.518L460.699 199.868C456.443 201.216 452.187 201.216 448.642 203.242C447.933 201.891 447.224 201.216 446.514 200.542C442.967 199.192 438.002 199.192 434.457 199.192C433.747 199.192 433.038 197.844 432.328 197.844C431.619 197.844 431.619 198.518 430.909 199.192C430.2 196.494 428.073 195.819 425.236 196.494C425.236 195.819 425.236 195.819 425.236 195.145C424.528 195.145 424.528 195.819 423.819 195.819C423.819 195.819 423.819 195.145 423.109 195.145C422.399 195.145 421.69 195.819 420.98 195.819C419.561 194.471 416.725 192.445 416.725 191.097" fill="#574778"/>
<path d="M468.499 186.373C468.499 187.047 468.499 187.722 468.499 188.397C471.338 189.071 472.047 191.097 474.173 193.795C477.01 192.445 477.01 187.047 478.429 185.024C481.267 181.651 483.394 180.975 486.94 179.626C485.522 174.228 481.976 178.276 478.429 177.601C474.884 176.252 472.047 168.829 469.21 176.252C472.047 178.276 472.756 181.651 473.464 184.348C472.047 184.348 469.919 185.698 469.21 185.698" fill="#574778"/>
<path d="M482.686 185.024C482.686 186.373 481.267 187.047 482.686 188.397C481.267 189.071 480.557 189.745 479.847 190.421C480.557 190.421 481.976 191.096 482.686 190.421C482.686 191.771 483.394 194.471 482.686 195.819C486.231 193.795 491.196 194.471 494.033 195.819C491.196 198.518 486.94 197.843 483.394 198.518C484.813 199.868 487.65 201.216 490.487 201.216C489.776 202.566 491.196 203.242 491.196 204.592C495.452 204.592 496.87 200.542 500.415 200.542C503.962 199.868 506.8 201.891 509.636 203.242C508.927 200.542 507.509 197.843 509.636 195.145C501.835 193.121 505.382 183 502.543 178.275C497.579 179.626 500.415 185.698 498.997 189.071C496.87 187.047 497.579 183 494.033 181.651C494.033 183.675 492.614 184.348 493.324 186.373C489.067 184.348 483.394 180.975 481.976 184.348" fill="#574778"/>
<path d="M473.464 162.082C473.464 162.757 472.756 164.106 472.756 164.781L474.173 164.106C474.884 165.455 474.884 166.805 475.592 168.155C479.139 164.781 478.429 161.408 483.394 158.709C482.686 158.034 482.686 157.359 481.976 156.009C482.686 156.009 484.813 155.334 485.522 155.334C485.522 156.683 486.94 158.034 487.65 158.709C490.487 154.66 483.394 149.938 481.267 156.009C477.01 154.66 475.592 159.383 473.464 162.082" fill="#574778"/>
<path d="M481.976 164.106C479.847 164.781 478.429 166.805 478.429 169.505C481.267 168.155 482.686 166.805 484.104 164.781C483.394 164.106 482.686 164.106 481.976 163.432C482.686 162.082 483.394 160.734 484.813 159.383C482.686 158.709 482.686 160.058 481.976 161.408" fill="#574778"/>
<path d="M487.65 162.757C486.231 163.432 485.522 163.432 484.813 164.781C485.522 164.781 485.522 165.455 486.231 166.13C484.813 166.805 483.394 169.505 482.686 169.505C485.522 172.204 489.067 170.853 492.614 170.18C490.487 171.529 490.487 173.553 489.067 174.228C492.614 175.577 495.453 173.553 496.87 170.853C501.125 173.553 503.253 171.529 506.8 171.529C506.091 168.829 503.253 166.13 500.415 167.479C500.415 168.155 501.125 165.455 501.835 164.781C500.415 164.781 498.997 164.106 497.579 164.106C496.87 162.082 496.16 160.733 495.453 159.383C493.324 162.757 496.16 165.455 494.744 168.155C491.905 166.805 490.487 164.106 488.359 162.757" fill="#574778"/>
<path d="M489.067 151.961C489.067 153.31 490.487 155.334 491.196 156.684C494.744 156.009 494.744 152.636 496.87 150.612C494.033 146.563 490.487 152.636 486.94 151.287" fill="#574778"/>
<path d="M491.905 147.238C494.744 147.913 495.452 147.238 497.579 148.589C497.579 147.913 498.289 146.563 498.289 145.888C495.452 144.539 494.033 145.213 492.614 147.913" fill="#574778"/>
<path d="M503.253 139.816C502.543 141.165 502.543 141.84 502.543 143.189C503.253 143.189 504.672 143.189 505.382 143.189C505.382 143.863 506.091 145.888 506.091 146.563C505.382 146.563 504.672 147.913 503.253 148.589C505.382 148.589 508.219 149.261 510.346 148.589C511.763 150.612 512.472 151.961 512.472 153.31C511.055 153.31 509.636 153.31 508.219 153.31C509.636 157.36 515.309 155.334 515.309 151.961C515.309 148.589 509.636 147.238 509.636 143.863C508.927 142.515 506.091 140.491 505.382 140.491" fill="#574778"/>
<path d="M501.125 152.636C501.125 153.31 501.125 153.985 501.125 155.334H502.543C502.543 156.009 502.543 157.36 502.543 158.709C506.8 157.36 504.672 153.985 501.835 153.31" fill="#574778"/>
<path d="M516.02 145.213C515.309 145.888 514.601 146.563 513.892 147.238C516.02 147.913 517.439 149.261 518.149 151.961H517.439C520.984 150.612 519.566 146.563 516.729 145.213" fill="#574778"/>
<path d="M520.984 153.985C520.275 153.985 519.566 153.985 518.857 153.985C518.857 153.985 518.857 155.334 519.566 156.009C521.693 155.334 521.693 154.66 521.693 153.31" fill="#574778"/>
<path d="M526.658 154.66C526.658 154.66 525.949 155.334 525.949 156.009C528.787 156.009 527.368 156.684 528.787 154.66H527.368" fill="#574778"/>
<path d="M503.962 161.408C504.672 161.408 504.672 162.082 505.382 161.408C506.8 164.106 507.509 162.757 508.927 164.106C508.927 163.432 508.219 162.757 508.219 162.082L510.346 163.432C510.346 158.034 513.892 159.383 516.02 162.757C517.439 166.13 514.601 168.155 514.601 171.529C512.472 170.853 511.055 169.504 511.055 166.805C510.346 167.479 508.927 166.805 507.509 167.479C506.8 166.13 505.382 164.106 504.672 162.082" fill="#574778"/>
<path d="M518.857 168.155C518.857 168.829 518.149 168.829 517.439 169.505C517.439 170.853 518.149 171.529 517.439 172.879C524.53 176.926 521.694 166.805 521.694 164.781C519.566 165.455 520.984 166.13 520.275 167.479" fill="#574778"/>
<path d="M515.309 178.276C515.309 179.626 515.309 181.651 515.309 183C518.857 185.698 516.729 189.071 514.601 191.771C511.055 189.071 503.962 185.698 506.8 181.651C507.509 183.675 508.927 184.349 509.636 186.373C512.472 183 505.382 178.276 512.472 177.601C513.181 177.601 513.181 178.276 513.181 178.951C513.892 178.951 515.309 178.276 515.309 178.276" fill="#574778"/>
<path d="M518.857 158.709C518.149 159.383 518.149 158.709 517.439 160.058C518.149 160.733 519.566 162.082 519.566 162.757C525.949 161.408 523.821 168.155 525.949 171.529C528.076 174.228 533.751 174.902 537.297 174.228C537.297 172.879 538.005 171.529 538.005 171.529C540.134 171.529 544.389 173.553 545.808 172.204C548.644 169.505 543.681 166.13 540.843 165.455C538.715 167.479 535.877 168.155 533.042 168.829C521.694 158.709 540.843 162.082 546.517 164.106C547.226 163.432 547.935 162.757 547.935 162.082C547.935 161.408 546.517 161.408 546.517 160.733C545.808 160.058 547.226 159.383 547.226 159.383C547.226 158.709 545.808 158.034 545.099 157.359C554.319 155.334 550.772 146.563 550.064 140.491C553.61 140.491 557.156 140.491 555.737 136.442C558.574 134.418 564.247 132.393 560.702 128.346C562.12 126.996 563.539 125.646 564.957 124.971C567.085 124.297 569.921 120.248 572.76 119.573C570.631 117.549 567.796 118.899 564.957 120.248C567.796 115.526 579.851 112.826 578.434 107.428C577.013 107.428 574.887 107.428 574.178 108.102C572.051 101.356 569.213 98.6556 563.539 106.079C561.411 101.356 553.61 100.005 552.191 104.729C551.482 104.056 550.064 104.056 549.353 103.38C549.353 104.729 548.644 106.079 550.064 108.102C547.226 109.452 544.389 108.103 542.263 106.079C541.551 108.103 541.551 110.126 542.971 112.15C542.263 112.15 541.551 111.476 540.843 111.476C539.425 112.826 540.134 112.826 538.005 112.15C536.587 112.826 534.46 112.826 533.751 112.826C527.368 116.875 528.076 119.573 529.496 125.646C531.623 125.646 533.042 126.322 534.46 125.646C540.134 132.393 545.808 124.297 551.482 124.297C546.517 132.393 531.623 133.742 527.368 126.322C525.949 126.996 525.239 126.322 524.53 126.996C524.53 124.971 523.112 122.946 523.112 121.597C521.694 122.946 518.857 129.695 518.857 131.718C518.149 135.767 522.402 137.792 520.984 141.84C523.821 141.165 524.53 141.84 525.949 139.816C527.368 145.213 520.984 145.888 527.368 150.612C530.205 147.913 534.46 146.563 534.46 141.84C535.169 138.467 530.205 135.092 534.46 132.393C535.169 135.092 536.587 137.792 537.297 139.816C543.681 141.84 533.042 146.563 533.751 150.612C533.042 150.612 532.332 149.938 531.623 150.612C536.587 150.612 540.134 153.31 538.715 158.034C536.587 156.009 535.877 153.985 533.042 152.636C533.751 153.31 533.751 156.009 534.46 157.359C531.623 159.383 529.496 162.757 526.658 159.383C526.658 160.058 525.949 160.733 525.239 162.082C523.821 160.058 521.694 159.383 518.857 159.383C518.857 158.709 519.566 158.709 519.566 158.034" fill="#574778"/>
<path d="M533.751 178.951C531.623 180.3 531.623 182.325 530.205 184.348C526.658 191.771 530.915 189.745 533.751 195.145C533.042 195.819 531.623 195.819 530.915 196.494C533.751 197.843 536.587 197.169 538.715 194.47C539.425 199.192 543.681 199.867 546.517 196.494C547.226 199.192 547.935 199.192 547.935 201.216C551.482 199.867 553.61 203.917 550.063 206.616C551.482 205.941 552.901 205.941 554.319 205.266C554.319 206.616 554.319 207.29 554.319 208.639C555.029 207.965 555.737 207.29 555.737 206.616C560.702 214.713 554.319 212.687 550.063 216.737C550.771 217.411 552.191 219.435 554.319 220.11C553.61 220.11 552.191 220.784 551.482 220.784C553.61 222.134 555.737 222.808 558.573 223.482C559.283 226.858 561.411 230.906 564.957 228.208C566.377 230.906 567.795 233.604 571.34 232.255C570.631 230.231 568.503 227.533 567.085 225.506C568.503 226.858 570.631 227.533 572.051 228.208C574.178 224.158 566.377 216.062 566.377 212.012C568.503 212.687 570.631 214.713 572.051 216.737C572.76 215.385 574.178 212.687 574.887 211.337C570.631 209.988 562.12 201.891 569.921 201.891C569.213 198.518 567.085 194.47 562.83 195.819C561.411 193.121 553.61 185.698 550.771 186.373C553.61 178.951 545.098 184.348 544.389 188.397C538.715 183 547.226 183.675 548.644 180.3C546.517 178.275 543.681 178.951 542.262 181.651C541.551 180.975 540.843 180.3 540.843 178.951C536.587 180.975 535.877 188.397 538.715 190.421C530.915 196.494 536.587 180.3 537.297 178.275C536.587 177.601 535.877 178.275 535.877 178.275" fill="#574778"/>
<path d="M539.425 316.599C538.715 317.274 538.005 318.623 536.587 319.299C539.425 319.972 543.681 320.646 546.517 320.646C547.226 324.694 550.771 325.369 554.319 324.02C552.901 322.672 549.353 317.274 547.935 316.599C546.517 315.925 544.389 317.274 542.262 315.925" fill="#574778"/>
<path d="M555.737 323.344C555.029 324.019 554.319 324.694 554.319 326.042C556.447 326.042 557.156 326.718 558.574 326.718C560.702 326.718 564.247 326.718 566.377 324.694C564.247 322.672 559.283 321.996 556.447 321.996" fill="#574778"/>
<path d="M557.156 336.838C556.447 337.514 556.447 337.514 556.447 338.866C556.447 338.866 554.319 337.514 555.029 337.514C552.901 340.215 552.191 343.588 551.482 346.961C550.772 346.961 550.064 346.961 548.644 346.961C550.064 350.336 550.772 353.036 549.353 355.058C545.099 355.733 546.517 359.106 545.099 362.481C548.644 365.854 547.226 371.928 549.353 375.976C550.064 376.65 553.61 380.023 554.319 380.698C556.447 382.047 556.447 386.097 559.283 382.047C561.411 384.747 562.831 387.445 559.993 389.47C569.213 394.869 552.191 412.411 559.993 420.509C559.283 420.509 559.283 420.509 558.574 420.509C556.447 423.207 555.737 428.605 556.447 431.979C555.029 431.979 552.901 433.327 552.191 433.327C554.319 437.376 551.482 440.076 553.61 443.45C552.191 446.823 552.901 450.873 554.319 453.571C555.029 453.571 555.737 452.895 556.447 452.895C557.156 458.293 564.247 459.641 567.796 463.018C568.504 462.343 569.213 461.668 569.213 461.668C567.085 459.641 566.377 456.944 566.377 454.246C567.085 454.246 567.796 454.246 568.504 454.919C563.539 448.172 564.247 446.823 570.631 440.751C567.796 438.051 569.213 434.003 567.085 430.629C570.631 429.281 575.596 427.932 570.631 423.882C574.178 421.858 578.434 425.231 581.27 422.531C583.397 420.509 582.688 413.759 580.561 411.735C581.979 411.735 584.107 411.062 585.527 411.062C591.909 417.137 589.781 409.037 591.2 407.014C593.327 404.312 597.582 405.665 597.582 400.939C602.547 398.242 593.327 394.195 601.128 391.494C603.257 394.195 606.093 393.519 608.93 394.195C608.93 392.843 609.641 390.819 608.93 389.47C616.023 384.747 609.641 381.372 611.767 375.976C613.186 372.603 625.244 370.575 620.279 363.83C618.86 363.83 618.86 364.505 618.15 365.181C618.15 363.83 618.15 362.481 618.15 361.807C616.733 361.807 616.023 362.481 615.314 362.481C615.314 361.807 615.314 361.807 615.314 361.131C612.477 361.807 608.93 361.131 607.512 358.431C604.676 359.106 601.839 357.082 599.001 359.78C599.001 358.431 599.001 357.757 599.001 357.082C598.292 357.082 597.582 357.757 596.874 357.082C594.036 355.733 592.617 353.036 594.036 349.662C593.327 350.336 591.909 350.336 591.909 351.01C591.909 350.336 591.909 348.31 591.2 347.635C588.362 348.31 587.653 348.31 586.234 345.612C585.527 346.286 584.816 346.286 584.107 346.961C583.397 346.286 583.397 345.612 583.397 345.612C582.688 345.612 581.979 346.286 581.27 346.286C579.851 343.588 577.725 340.889 575.596 338.866C574.887 339.539 572.051 340.215 571.34 340.215C571.34 339.539 570.631 338.191 570.631 337.514C570.631 338.866 569.213 340.215 569.213 341.563C566.377 340.889 562.831 338.866 562.12 335.49C562.12 336.165 560.703 337.514 560.703 337.514" fill="#574778"/>
<path d="M707.516 402.963C706.096 404.988 707.516 407.014 710.353 407.014C710.353 408.363 711.062 410.387 711.062 411.736C711.77 411.736 712.479 411.062 713.19 411.062C713.899 411.062 713.899 412.411 715.318 412.411C715.318 411.736 717.445 410.387 718.155 408.363C725.246 414.435 729.501 408.363 733.758 402.963C733.049 402.29 732.34 400.266 730.92 400.266C733.049 398.242 735.175 396.218 738.723 395.545C736.594 393.519 736.594 390.819 736.594 388.121C738.012 386.097 737.304 386.773 738.723 385.422L739.432 386.097C740.849 380.698 750.071 379.349 745.106 373.277C745.815 373.277 745.815 372.603 746.524 371.928C742.268 369.902 745.106 365.854 743.688 361.807L745.106 363.155C745.106 362.481 745.815 361.132 746.524 360.458C746.524 361.132 747.233 361.132 747.233 361.807C747.943 361.132 747.943 359.78 748.653 359.78C749.361 359.78 749.361 360.458 750.78 359.78C753.617 355.733 749.361 352.36 755.744 349.662C757.163 350.336 757.871 350.336 758.581 350.336C758.581 349.662 758.581 348.985 758.581 347.635C763.545 344.262 763.545 340.889 765.675 336.165C762.836 335.49 759.999 336.838 758.581 339.539C757.163 337.514 755.035 336.165 753.617 334.816C752.198 335.49 750.78 335.49 749.361 335.49C750.071 332.791 752.198 330.768 754.326 334.141C755.744 333.466 756.454 332.791 757.871 332.791C755.744 329.418 752.198 329.418 750.78 332.117C744.396 329.418 733.049 312.549 735.175 305.802C735.175 305.802 735.886 307.827 735.886 308.502C735.886 307.152 735.886 305.802 735.886 304.452C738.723 306.478 744.396 315.925 744.396 319.972C747.233 319.972 751.489 327.394 752.907 330.093C755.035 331.444 755.035 330.768 756.454 333.466C759.29 332.117 762.836 331.444 765.675 330.768C768.511 329.418 767.092 324.02 772.058 328.744C774.185 326.718 775.603 324.02 774.894 321.321C775.603 320.646 776.311 320.646 777.021 319.299C777.021 317.274 776.311 314.573 772.766 313.224C772.058 314.573 770.637 315.248 770.637 315.925C769.22 315.248 761.42 312.549 761.42 311.875C758.581 309.176 757.871 302.428 762.128 307.152C764.966 306.478 770.638 311.875 772.766 313.224C775.603 313.898 778.44 312.549 780.568 310.525C780.568 311.875 781.986 312.549 781.986 314.573C784.824 313.224 785.533 313.224 784.824 310.525C786.951 311.199 788.369 313.224 788.369 315.925C789.079 315.248 791.206 315.248 791.916 314.573C792.625 315.925 792.625 316.599 792.625 317.274C793.334 317.274 794.043 317.274 794.043 316.599C794.043 319.972 794.754 323.344 799.008 319.972C800.427 323.344 796.881 332.791 803.973 332.117C804.682 336.838 805.391 339.539 807.52 342.239C810.357 338.191 811.066 330.768 815.321 328.744C814.612 328.07 815.321 326.043 814.612 325.369C821.704 324.02 823.122 323.344 828.087 319.299C828.087 319.299 828.087 319.972 828.087 320.646C828.796 319.972 830.214 319.299 830.925 319.299C831.634 319.299 830.925 320.646 831.634 320.646C833.053 320.646 833.053 319.972 833.761 320.646C833.761 321.321 833.761 322.672 833.053 323.344C835.889 324.02 836.6 326.718 837.308 329.418C842.982 326.043 845.11 334.141 845.11 337.514C845.818 343.588 843.691 346.286 851.492 348.985C850.075 346.961 847.946 346.286 847.237 344.262C846.527 340.889 847.237 341.563 847.237 338.866C847.237 336.838 845.109 333.466 846.527 332.117C849.365 328.744 850.075 335.49 850.075 336.838C850.075 336.165 850.783 336.165 851.492 336.165C851.492 336.838 852.202 338.191 852.202 338.191C853.621 336.838 855.748 335.49 856.457 333.466C855.748 334.816 855.748 336.838 855.039 338.191C856.457 336.838 858.584 336.165 860.004 334.816C860.712 334.816 862.132 335.49 862.132 335.49C862.132 334.816 862.84 333.466 862.84 333.466C857.876 335.49 856.457 327.394 858.584 326.043C858.584 326.718 858.584 327.394 857.876 327.394C856.457 326.043 856.457 324.694 856.457 324.02C859.295 324.02 862.84 322.672 862.132 319.299C867.806 320.646 874.898 315.248 877.026 310.525C877.734 311.199 878.445 312.549 878.445 313.224C878.445 311.875 879.153 310.525 879.153 309.176C880.572 307.827 881.989 305.802 882.699 303.777C877.734 300.404 875.606 297.707 881.989 293.658C880.572 292.306 880.572 292.306 878.445 291.632C877.734 292.306 878.445 292.981 877.734 293.658C875.606 290.957 875.606 288.259 879.153 287.584C879.153 288.259 879.153 288.934 879.153 289.607C881.281 286.235 883.409 286.235 884.827 289.607C884.827 288.934 887.664 287.584 888.372 286.909C888.372 291.632 886.246 293.658 887.664 299.054C889.791 298.38 891.211 297.707 893.338 295.682C893.338 296.355 892.628 297.031 892.628 297.707C898.302 292.981 893.338 292.306 892.628 287.584C893.338 286.909 894.048 286.909 894.756 286.909C894.048 285.561 894.048 283.536 893.338 282.185C894.048 282.185 896.884 281.511 897.594 281.511C899.721 282.862 899.721 282.185 901.14 282.862C901.849 282.185 901.849 281.511 901.849 280.161C912.487 278.137 908.233 263.969 913.907 258.569C916.743 261.267 916.743 272.064 914.616 274.764C916.034 274.764 916.743 274.764 918.162 274.09C915.325 268.016 923.126 256.545 915.325 253.847C916.034 251.823 915.325 250.474 915.325 248.448C914.616 251.148 913.197 253.172 911.068 253.847C908.233 249.122 903.268 249.797 908.942 244.4C911.068 242.377 919.581 235.629 921.708 236.977C922.417 236.302 923.126 236.302 923.834 235.629C925.964 245.075 938.73 234.953 940.147 230.232C945.822 234.279 945.822 228.882 952.205 228.208C948.66 235.629 939.439 241.027 938.02 249.122C938.02 249.122 939.439 253.172 939.439 254.522C939.439 255.871 938.73 257.895 938.02 259.919C936.602 263.969 934.473 266.667 931.637 270.714C941.566 266.667 941.566 255.196 950.078 249.797C949.368 249.122 949.368 247.099 947.95 246.424C950.078 244.4 951.496 238.327 952.205 234.953C952.913 235.629 955.044 236.302 955.753 236.977C956.461 232.93 960.007 234.279 962.844 232.93C965.68 231.58 967.809 228.882 970.645 228.208C970.645 228.882 970.645 229.557 970.645 229.557C971.355 228.208 973.483 226.856 973.483 224.832H974.193C974.901 225.506 974.193 226.182 974.901 226.182C976.32 225.506 977.029 224.832 977.739 222.808C975.61 222.808 975.61 221.459 973.483 220.785C973.483 220.11 973.483 219.435 973.483 218.761C974.193 219.435 975.61 219.435 977.029 220.11C977.739 217.411 979.866 212.687 981.285 217.411C982.702 217.411 984.123 218.086 986.249 216.737C985.54 217.411 986.249 218.761 986.249 220.11C987.667 221.459 989.796 222.134 991.214 221.459C990.505 220.785 990.505 219.435 990.505 218.761V219.435C992.633 218.761 993.341 216.737 993.341 214.711C992.633 215.385 991.923 214.711 990.505 215.385C990.505 214.036 990.505 212.687 991.214 212.012C989.796 212.012 988.377 212.012 986.959 213.361C986.959 212.012 985.54 209.988 986.249 208.64C985.54 209.314 984.123 209.314 982.702 209.988C982.702 209.314 982.702 207.965 983.412 207.29C979.866 205.941 972.774 201.216 969.936 198.518C965.68 203.24 964.973 195.819 960.007 197.843C960.007 197.843 960.716 197.843 961.426 197.843C960.716 200.542 960.007 201.216 962.844 203.24C959.298 205.266 956.461 203.24 956.461 199.868C952.205 201.892 948.66 197.843 945.113 201.892C945.822 199.868 945.113 197.843 945.822 196.494C944.404 195.819 944.404 196.494 943.695 197.169C943.695 195.819 943.695 194.471 944.404 193.12C942.277 193.12 936.602 195.819 935.185 195.145C931.637 194.471 930.928 191.771 927.382 191.771C928.091 190.421 927.382 188.397 927.382 187.722C922.417 188.397 915.325 181.65 913.907 187.048C911.068 188.397 911.068 187.722 910.36 190.421C906.103 192.445 903.268 189.071 901.14 193.12C901.14 192.445 900.431 191.771 900.431 191.771C899.721 192.445 898.302 193.795 897.594 193.795C891.211 191.095 896.884 183.675 890.502 180.299C889.083 180.299 887.664 179.624 886.246 178.95C885.536 180.974 884.118 181.65 883.409 182.999C882.699 182.999 881.989 182.324 881.281 181.65C879.153 182.999 877.026 181.65 875.606 179.624C874.898 180.299 873.479 180.974 872.771 181.65C872.771 180.299 871.352 179.624 871.352 178.276C869.223 179.624 866.386 178.95 864.258 177.601C861.423 178.95 857.876 183.675 855.039 182.324C857.166 176.926 864.258 174.228 866.386 168.829C865.678 168.829 864.968 168.154 863.549 167.479C866.386 165.456 866.386 163.432 864.258 161.408C862.132 159.383 860.004 161.408 857.166 162.757C857.876 159.383 856.457 158.032 853.621 157.36C853.621 156.684 854.33 156.684 854.33 156.009C849.365 154.66 844.401 164.781 838.016 165.456C838.727 164.781 838.727 164.106 839.436 163.432C835.179 164.781 830.214 168.154 825.961 170.853C825.961 171.528 826.669 171.528 827.378 172.204C824.541 173.553 824.541 174.228 825.961 176.252C823.122 176.926 821.705 178.276 822.413 180.299C818.867 178.95 815.321 180.299 813.903 183.675L814.612 186.373C817.448 187.722 817.448 188.397 817.448 191.095C823.122 191.771 817.448 196.494 816.031 199.193C814.612 196.494 816.031 191.771 813.193 188.397C812.485 189.071 811.774 189.071 811.774 189.746C811.066 187.722 809.647 187.048 808.938 185.698C806.811 187.722 806.811 190.421 806.811 193.795C803.973 191.095 805.391 187.048 803.973 183.675C806.1 188.397 796.881 202.566 806.811 201.892C807.52 203.915 807.52 205.266 806.1 207.29C805.391 205.266 804.682 204.59 803.265 203.24C801.135 207.29 803.265 218.086 794.754 214.711C806.1 214.036 794.754 198.518 799.717 195.145C798.299 191.771 801.845 190.421 801.845 187.722C801.845 185.024 799.008 185.024 800.427 181.65C798.299 182.999 797.591 182.324 796.171 185.024C796.171 183.675 796.171 182.324 796.171 181.65C791.916 183.675 790.498 197.843 791.916 201.216C792.625 201.216 793.335 201.892 794.043 201.892C794.043 203.24 794.043 203.915 794.043 205.266" fill="#574778"/>
<path d="M794.043 205.941C794.043 206.616 793.335 207.29 792.625 207.965C792.625 206.616 791.206 205.941 791.206 203.914C789.788 203.914 789.079 204.59 787.661 204.59C788.37 203.914 788.37 202.566 788.37 201.891C787.661 201.891 786.951 203.24 786.242 202.566C784.824 200.542 782.697 199.193 780.568 199.193C779.859 196.494 779.15 195.819 776.311 195.819C777.731 197.844 781.986 205.941 775.603 202.566C773.475 204.59 772.766 203.914 769.929 204.59C769.929 203.914 769.929 203.24 769.929 202.566C767.092 203.914 759.29 209.314 758.581 212.687C756.454 212.012 755.035 209.988 753.617 207.965C757.163 205.941 757.163 203.914 753.617 203.24C750.78 207.965 755.744 214.711 748.653 214.036C747.233 215.385 745.815 217.411 745.106 219.435C744.396 219.435 743.688 218.761 742.268 218.761C742.268 220.785 740.849 221.459 740.141 222.134C735.886 218.086 736.594 212.012 730.92 208.64C735.175 208.64 737.304 212.687 739.432 212.687C742.979 213.361 749.362 210.663 743.688 208.64C742.979 203.24 737.304 198.518 730.92 199.193C731.63 198.518 731.63 197.844 732.34 197.169C730.92 194.471 728.084 191.771 725.957 194.471C723.828 192.445 723.119 193.121 720.283 192.445C720.283 193.121 720.283 194.471 720.283 195.145C718.864 195.145 718.155 196.494 715.318 195.819C715.318 196.494 715.318 197.169 715.318 197.844C712.479 199.193 713.19 199.193 711.77 201.216C708.934 201.216 706.096 202.566 705.388 205.266C706.096 205.266 707.516 205.266 707.516 205.266C702.551 209.988 702.551 213.361 699.004 218.761C696.878 222.808 693.33 226.182 691.203 229.556C685.53 235.629 690.494 237.652 689.784 243.725C693.33 241.702 693.33 238.329 697.587 237.652C698.295 239.004 699.004 240.353 699.004 241.702C699.004 241.702 700.423 240.353 699.714 240.353C699.714 243.051 699.714 245.075 701.842 247.099C703.26 245.075 703.97 243.725 703.97 241.027C706.096 241.027 708.225 239.004 711.062 238.329C710.353 236.302 709.644 234.279 708.225 233.604C707.516 232.255 707.516 230.232 707.516 228.882C711.77 227.533 715.318 221.459 713.19 218.086C713.899 217.411 716.026 215.385 716.736 215.385C717.445 215.385 719.573 214.713 720.283 214.713C721.7 217.411 721.7 216.737 723.828 219.435C721.7 220.11 720.992 221.459 719.573 223.483C719.573 223.483 718.155 222.808 717.445 222.808C715.318 227.533 716.736 232.255 715.318 236.977C716.736 234.953 718.864 234.279 720.992 234.279C721.7 234.279 721.7 232.93 723.119 232.255C723.119 232.93 723.828 234.279 724.537 234.953C724.537 234.279 725.957 233.604 725.957 233.604C728.084 236.302 726.665 237.652 723.119 237.652C723.119 238.329 723.119 239.678 723.119 240.353C720.992 239.004 719.573 239.004 716.736 240.353C717.445 240.353 718.864 240.353 719.573 241.027C720.283 241.702 720.283 242.377 721.7 243.051C720.992 243.725 718.864 245.075 718.864 245.749C717.445 245.749 717.445 245.075 716.026 245.075C715.318 245.075 715.318 245.749 715.318 246.424C714.608 245.749 713.899 245.075 713.899 245.075C713.19 247.099 713.19 249.799 713.899 251.823C711.062 252.498 708.934 253.847 706.807 255.196C706.096 254.522 703.97 253.172 702.551 251.823C702.551 252.498 702.551 252.498 702.551 253.172C702.551 253.172 701.131 252.498 701.131 253.172C701.131 253.847 700.423 255.196 700.423 256.545C697.587 255.871 695.458 254.522 695.458 251.148C696.878 251.148 697.587 250.474 699.004 250.474C699.004 249.799 698.295 249.125 698.295 247.773C699.004 247.773 699.714 247.773 701.131 247.773C699.004 241.027 692.621 249.125 694.75 253.172C689.075 255.196 685.53 257.895 684.111 263.969C680.564 263.969 678.437 265.992 674.89 263.969C674.182 264.643 674.89 265.317 674.89 265.992C674.182 265.317 673.471 264.643 672.762 263.969C670.634 268.691 675.6 268.691 677.018 271.391C678.437 274.089 674.182 275.439 678.437 278.137C677.727 278.812 675.6 280.161 674.182 280.161C672.054 277.462 673.471 278.137 669.925 278.812C667.799 276.788 665.672 278.812 662.834 280.161C662.123 281.511 662.834 283.536 663.542 284.886C668.508 285.561 664.252 292.306 669.925 293.658C675.6 295.007 677.727 289.607 679.146 285.561C681.983 284.886 683.402 282.187 684.111 280.161C684.82 281.511 686.948 283.536 687.656 284.886C688.872 284.114 689.393 284.225 690.014 284.335C690.479 284.418 691 284.5 691.912 284.211C691.912 284.886 691.912 286.235 691.912 286.909C694.04 284.211 693.33 280.161 691.912 277.462C694.04 277.462 693.33 278.137 694.04 278.812C694.75 278.137 695.458 278.137 695.458 278.137C696.168 278.812 697.587 280.836 697.587 281.511C698.295 281.511 700.423 281.511 701.131 281.511C700.423 283.536 701.842 285.561 703.97 286.909C708.225 281.511 699.714 280.836 702.551 275.439C703.26 276.114 703.97 277.462 704.679 278.137C705.388 277.462 706.096 276.788 706.807 276.114C707.516 278.812 708.934 279.487 711.062 279.487C708.934 280.161 708.934 280.161 711.062 282.862C711.062 282.862 711.77 282.187 712.479 282.187C713.899 288.259 713.19 287.584 711.77 292.983C714.608 292.983 716.736 294.333 717.445 296.355C720.283 295.007 718.864 295.007 722.41 295.007C721.7 294.333 721.7 292.306 720.992 291.632C721.346 291.294 721.878 291.463 722.41 291.631C722.942 291.8 723.473 291.968 723.828 291.632C723.828 290.957 723.119 290.282 724.537 290.282C724.537 290.282 725.246 291.632 725.246 292.306C727.375 292.983 729.501 293.658 731.63 292.306C732.34 297.031 736.594 295.682 740.141 294.333C740.141 297.031 738.724 298.38 737.304 300.404C736.594 300.404 735.886 300.404 734.466 300.404C735.175 301.079 735.175 303.101 735.175 303.777C734.466 304.452 731.63 305.126 730.213 305.126C730.213 304.452 729.501 303.777 728.793 303.101C726.665 303.777 725.957 303.777 724.537 303.777C723.828 304.452 723.119 305.802 722.41 305.802C719.573 304.452 714.608 296.355 713.899 303.101C713.19 302.428 713.19 301.752 712.479 301.752C712.479 302.428 711.77 304.452 711.77 305.802C708.225 303.777 702.551 301.079 699.714 299.054C699.714 299.729 699.714 300.404 699.714 301.079C698.295 300.404 697.587 299.054 696.878 298.38C696.878 297.031 696.878 296.355 697.587 295.007C697.587 295.007 696.878 292.306 696.168 291.632C692.622 291.632 690.494 293.658 691.912 296.355C687.656 295.682 682.691 288.934 681.274 296.355C678.437 293.658 679.146 295.007 676.308 296.355C675.6 296.355 674.89 295.682 674.182 295.007C673.471 295.682 673.471 295.682 672.762 296.355C672.054 295.682 671.345 295.682 670.634 295.007C670.634 296.355 669.925 297.707 669.925 299.054C665.672 296.355 657.159 307.826 659.286 311.875C655.741 312.549 652.903 315.248 655.741 318.623C655.032 318.623 654.323 318.623 653.613 318.623C651.485 321.321 651.485 332.116 652.903 336.165C652.194 338.19 653.613 339.54 656.45 340.215C657.159 340.215 657.868 339.54 658.578 338.866C658.578 342.239 661.415 344.937 662.834 346.961C664.252 346.961 664.252 346.286 665.672 345.612C667.088 350.336 670.634 347.635 672.054 344.262C673.471 344.937 672.762 344.937 673.471 346.286C674.182 346.286 674.89 345.612 675.6 345.612C676.308 346.286 676.308 346.961 677.727 347.635C678.437 346.961 679.146 345.612 679.146 344.937C681.983 346.286 684.111 345.612 685.53 343.588C686.238 344.937 686.238 345.612 686.238 346.286C690.494 346.286 696.168 348.31 694.04 353.036C694.75 353.036 696.168 353.708 696.878 353.708C697.587 354.383 698.295 357.082 698.295 358.431C696.878 358.431 696.168 359.106 695.458 359.106C699.714 363.83 707.516 376.65 697.587 380.698C699.714 382.047 699.714 383.399 701.131 384.747C699.714 387.445 700.423 392.167 703.97 392.843C703.26 395.545 703.97 396.218 703.97 398.917C703.97 398.917 703.26 398.242 702.551 398.242C703.97 399.591 703.26 400.266 706.096 400.939C706.096 402.29 706.807 402.964 706.807 403.639L794.043 205.941Z" fill="#574778"/>
<path d="M702.551 147.238C703.26 146.563 703.97 145.888 704.679 145.213C704.679 146.563 705.388 147.238 704.679 149.261C705.388 149.261 706.096 147.913 706.807 149.261C706.096 151.961 699.714 153.31 704.679 155.334C703.26 158.709 704.679 161.408 706.807 164.106C711.062 159.383 708.934 152.636 710.353 146.563C711.77 148.588 713.899 152.636 713.899 156.009C715.318 156.009 717.445 156.009 718.864 155.334C714.608 151.287 716.736 141.84 710.353 140.491C709.644 139.816 711.062 139.142 710.353 138.467C710.353 138.467 708.934 139.142 708.224 139.142C708.934 136.442 708.224 134.418 705.388 133.068C703.26 135.768 706.096 139.142 703.97 141.84C703.97 139.816 702.551 137.792 701.842 135.767C701.842 135.767 701.842 136.442 701.131 136.442C701.131 135.092 701.131 135.092 699.714 134.418C696.878 135.767 693.33 137.792 696.168 140.491C695.458 143.189 695.458 145.213 698.296 145.213C696.168 147.913 697.586 147.913 699.714 149.938C701.131 148.588 702.551 147.238 703.97 145.213" fill="#574778"/>
<path d="M710.353 131.044C709.644 131.718 708.934 132.393 708.225 133.068C708.934 133.742 709.644 133.742 710.353 133.742C710.353 135.092 710.353 136.442 711.062 137.116C711.77 136.442 714.608 136.442 716.027 135.767C715.318 137.792 716.736 137.116 713.899 139.142C714.608 139.816 716.027 141.165 716.736 141.84C717.445 141.84 718.155 140.491 718.864 140.491C718.864 140.491 718.864 141.165 720.283 141.165C722.41 138.467 722.41 135.767 724.537 133.068C723.119 131.718 720.283 131.044 718.864 130.369C717.445 132.393 716.027 131.718 715.318 133.068C713.899 132.393 711.77 131.044 711.062 130.369" fill="#574778"/>
<path d="M767.802 124.97C767.802 125.646 767.802 126.321 767.802 127.672C768.511 126.995 770.638 126.995 771.348 126.321C771.348 127.672 772.058 129.02 771.348 129.695C773.475 128.346 775.603 127.672 777.021 126.995C777.732 124.97 777.732 124.97 776.311 122.947C774.894 123.621 773.475 124.295 772.766 124.97C771.348 120.248 777.021 121.597 777.021 117.55C772.766 117.55 769.22 122.272 767.802 124.295" fill="#574778"/>
<path d="M782.697 123.621C781.986 124.97 781.277 125.646 781.277 126.995C781.986 126.995 782.697 126.321 783.404 126.321C784.114 126.995 783.404 128.346 784.114 129.02C786.951 128.346 788.37 124.97 789.788 122.272C786.951 121.597 784.824 122.946 782.697 121.597" fill="#574778"/>
<path d="M811.774 123.621C811.066 124.97 810.357 125.646 809.647 126.321C811.774 126.995 811.774 126.321 813.904 125.646C813.904 124.295 813.193 124.295 811.774 123.621Z" fill="#574778"/>
<path d="M832.343 124.97C835.18 122.272 841.562 121.597 840.853 129.02C841.562 129.02 842.273 129.02 842.982 129.02C841.562 130.369 840.144 132.393 839.436 134.417C842.274 135.092 842.273 134.417 841.562 137.116C846.527 138.467 845.11 145.887 839.436 144.539C840.144 144.539 834.47 139.141 834.47 139.816C833.761 137.116 835.889 135.766 835.18 133.068C834.47 133.742 833.053 133.742 831.634 135.092C831.634 132.393 832.343 131.044 835.18 129.695C835.18 129.02 834.47 129.02 833.761 128.346C833.761 127.672 833.761 127.672 834.47 126.995C833.761 126.321 833.053 126.995 832.343 126.321" fill="#574778"/>
<path d="M847.946 139.816C847.946 139.816 847.237 140.491 846.527 141.165C848.656 143.863 843.691 147.238 842.274 150.612C842.982 150.612 844.401 151.287 844.401 151.287C847.237 147.913 850.783 149.938 852.911 147.238C857.166 143.189 850.783 143.189 850.075 139.141" fill="#574778"/>
<path d="M791.206 158.032C789.079 162.082 781.986 164.781 777.021 166.13C775.603 168.154 773.475 169.505 774.185 171.528C772.766 173.553 771.348 175.577 768.511 177.601C769.219 178.276 769.219 178.95 769.929 179.624C767.092 180.974 761.42 188.396 766.383 189.746C765.674 191.095 765.674 193.12 765.674 194.471C766.383 193.795 767.802 193.795 768.511 193.12C768.511 194.471 767.802 195.145 767.802 195.819C769.929 197.844 772.766 198.518 774.894 197.169C772.766 195.819 772.058 192.445 772.058 189.071C772.058 186.373 772.766 180.299 773.475 178.95C774.185 177.601 780.568 169.505 781.986 168.154C785.533 166.13 788.37 168.829 791.206 164.106C790.498 164.106 790.498 163.432 789.788 163.432C793.335 162.082 794.043 160.058 792.625 157.359L791.206 158.032" fill="#574778"/>
<path d="M920.289 277.462C918.162 278.137 916.743 278.812 914.616 276.788C913.197 279.487 910.36 280.836 909.651 284.211C909.651 284.885 910.36 289.607 910.36 291.632C908.942 292.305 907.523 293.655 906.814 293.655C906.103 293.655 905.396 292.981 905.396 292.981C903.977 292.981 903.268 294.333 901.849 294.333C901.849 295.682 901.849 296.355 901.849 297.031C901.14 297.031 896.885 297.706 896.175 297.706C894.756 299.729 896.175 301.079 895.466 301.753L894.756 306.478C894.048 309.176 892.628 309.851 892.628 312.549C895.466 309.176 896.175 302.428 900.431 299.729C903.268 298.38 916.034 299.054 912.487 292.305C916.743 291.632 916.034 288.259 913.197 285.561C914.616 284.885 913.907 284.885 916.034 284.211C916.743 283.536 917.451 282.862 919.581 282.185C919.581 282.862 920.289 282.862 920.999 283.536C922.417 281.511 923.126 279.487 922.417 277.462" fill="#574778"/>
<path d="M881.281 324.019C878.445 326.718 876.316 334.141 879.862 336.165C879.862 333.466 880.572 328.744 884.118 327.394C883.409 326.042 882.699 324.694 881.989 324.019" fill="#574778"/>
<path d="M883.409 337.514C883.409 338.191 883.409 339.539 884.118 340.215H882.699C885.536 340.215 885.536 338.191 884.118 336.165C882.699 336.165 882.699 336.838 881.99 337.514" fill="#574778"/>
<path d="M886.246 340.889C885.536 342.239 884.827 344.262 884.118 344.936C886.954 346.286 889.083 344.262 886.954 340.889" fill="#574778"/>
<path d="M873.479 342.239C872.061 344.262 867.096 346.961 868.514 350.336C866.386 351.01 864.968 351.684 863.549 353.035C861.423 352.36 859.295 352.36 857.876 352.36C860.004 354.383 862.84 359.106 865.678 359.779C869.223 361.807 874.188 361.131 872.061 356.409C874.898 354.383 873.479 355.733 875.606 353.035C876.316 353.709 877.026 354.383 877.734 354.383C877.026 351.01 874.188 348.985 875.606 346.286C875.606 345.612 876.316 345.612 876.316 344.936C875.606 344.262 874.188 342.239 872.771 341.563" fill="#574778"/>
<path d="M851.492 352.36C851.492 352.36 846.527 351.684 845.11 352.36C844.401 348.985 840.853 345.612 837.308 346.286C838.016 349.662 843.691 355.733 845.818 358.431C847.237 359.78 854.33 367.878 855.039 362.481C855.039 362.481 856.457 361.807 856.457 362.481C855.748 358.431 851.492 355.733 852.911 352.36" fill="#574778"/>
<path d="M857.876 363.829C856.457 365.181 855.039 365.181 856.457 367.203C858.584 365.854 859.295 366.528 861.423 365.854C863.549 369.902 878.445 369.902 882.699 367.203C874.188 367.203 864.968 364.505 857.166 363.829" fill="#574778"/>
<path d="M879.862 355.058C877.734 353.709 878.445 363.155 877.734 365.181C880.572 365.181 880.572 362.481 879.862 360.458C880.572 363.155 881.99 363.155 882.699 365.181C884.118 363.155 883.409 360.458 881.99 358.431C883.409 359.106 884.827 359.78 886.246 360.458C886.955 357.757 885.536 358.431 882.699 357.757C881.281 356.409 881.99 356.409 881.99 355.058C885.536 355.733 887.664 355.058 887.664 351.685C884.827 353.036 882.699 353.709 880.572 354.383" fill="#574778"/>
<path d="M891.211 351.685C890.502 353.709 889.083 353.709 891.211 355.733C888.372 357.757 887.664 360.458 890.502 362.481C891.211 361.807 892.628 361.132 893.338 361.132C894.757 361.807 895.466 361.807 897.594 362.481C894.757 360.458 893.338 359.106 891.92 356.409C890.502 354.383 894.757 353.036 890.502 351.01" fill="#574778"/>
<path d="M896.175 355.058C895.466 355.058 895.466 353.709 895.466 355.733C898.302 356.409 900.431 358.431 898.302 361.131C900.431 362.481 902.557 363.155 904.686 361.807C906.814 363.155 908.942 364.505 910.36 365.854C907.523 368.553 898.302 369.226 895.466 365.854C895.466 366.528 894.756 367.878 894.756 367.878C889.791 367.203 889.083 370.575 884.118 370.575L882.699 369.902C881.989 369.902 881.99 370.575 881.99 371.251C885.536 371.928 889.791 371.928 891.211 368.553C894.756 369.902 893.338 369.902 896.175 368.553C897.594 369.226 899.012 369.902 899.721 371.251C903.268 371.928 912.487 371.928 913.197 367.203C913.907 368.553 915.325 370.575 916.034 371.928C918.162 371.251 920.29 369.902 922.417 369.226C922.417 367.878 922.417 367.203 923.126 366.528C923.126 367.878 925.255 369.902 925.255 371.251C927.382 369.226 928.091 369.902 926.674 366.528C929.511 365.854 933.057 365.18 934.473 362.481C933.764 361.131 931.637 359.106 930.218 358.431C930.928 359.106 930.218 360.455 930.928 361.807C928.091 365.18 923.834 361.131 920.29 364.505C918.162 361.131 914.616 361.131 912.487 357.756C909.651 358.431 908.233 357.756 905.396 359.779C906.103 360.455 906.103 361.807 906.103 362.481C901.14 361.131 901.849 355.733 896.885 354.383" fill="#574778"/>
<path d="M913.907 373.952C913.197 376.65 913.197 380.698 913.197 383.4C911.068 382.722 908.233 380.698 905.396 380.698C906.103 379.349 906.103 377.999 907.523 376.65C905.396 375.976 905.396 375.976 903.977 376.65C901.849 375.3 902.557 375.3 899.721 376.65C897.594 375.3 895.466 374.626 893.338 373.277C894.048 374.626 894.048 377.325 894.756 378.674C892.628 378.674 890.502 378.674 889.083 377.999C888.372 378.674 888.372 379.349 888.372 380.023C884.827 380.023 880.572 386.773 877.026 388.795C873.479 390.145 863.55 392.843 869.223 396.892C871.352 400.266 869.223 404.312 869.932 407.689C872.771 409.037 872.771 412.411 871.352 415.109C872.771 415.109 872.771 415.109 874.188 414.435C877.026 415.109 875.606 415.784 879.153 413.759C879.153 414.435 879.153 415.109 879.862 415.784C880.572 414.435 882.699 413.086 883.409 411.736C883.409 411.736 884.118 412.411 884.827 412.411C886.246 409.712 891.211 404.988 893.338 409.037C894.048 409.037 894.756 408.363 895.466 407.689C895.466 408.363 895.466 409.037 895.466 409.037C896.175 408.363 898.302 407.689 899.012 407.014C901.14 408.363 902.557 409.712 903.977 411.736C906.103 409.712 911.779 409.037 909.651 413.759C911.779 415.784 913.907 417.81 916.034 419.834C915.325 420.509 915.325 421.183 915.325 421.858C918.162 421.183 918.162 421.858 920.29 420.509C920.999 419.834 921.708 420.509 922.417 420.509C922.417 419.834 923.126 418.484 923.834 417.81C925.255 418.484 926.674 418.484 927.382 419.159C928.799 418.484 928.091 418.484 928.091 417.137C930.218 416.461 931.637 415.109 932.348 413.086C928.091 407.689 935.185 406.34 936.602 402.29C935.894 400.939 935.185 400.939 934.473 400.266C933.765 399.591 934.473 398.917 934.473 398.242C933.765 397.568 933.057 397.568 932.348 396.892C932.348 396.218 933.057 395.545 932.348 394.869C928.799 392.843 923.834 386.773 920.29 383.4C918.162 380.698 914.616 374.626 914.616 370.575" fill="#574778"/>
<path d="M562.12 158.034C562.12 158.709 559.993 160.734 558.573 161.408C559.283 161.408 560.702 161.408 562.12 160.734C562.12 161.408 562.83 162.082 563.538 162.757C563.538 165.456 562.83 164.106 564.957 166.13H565.667C565.667 165.456 565.667 164.781 566.377 164.781C569.213 166.13 572.051 164.781 572.759 162.082C573.468 162.757 574.887 164.106 574.887 165.456C575.596 164.781 577.013 164.106 577.725 163.432C578.433 164.781 579.851 166.13 579.851 168.155C580.561 168.155 581.27 167.479 582.687 167.479C582.687 169.505 582.687 171.529 581.27 173.553C581.979 173.553 583.397 173.553 584.107 173.553C588.362 177.601 584.816 183 587.653 187.048C586.234 188.396 586.943 189.746 587.653 192.445C591.2 191.097 594.745 194.471 592.617 197.169C591.2 195.819 590.49 195.819 589.072 194.471C589.072 196.495 589.072 197.844 589.781 199.193C590.49 199.193 591.2 199.193 591.909 199.193C590.49 199.868 589.781 201.216 589.072 201.892C589.781 201.892 591.2 201.216 591.909 201.216C591.909 202.566 591.909 203.917 591.909 204.592C583.397 209.988 591.2 222.134 593.327 227.533C593.327 227.533 594.036 227.533 594.745 227.533C595.455 229.556 596.873 230.906 597.582 232.93C598.292 232.255 599.001 232.255 599.001 232.255C599.71 235.629 603.966 237.652 606.803 238.329C606.803 236.977 606.803 234.279 606.093 232.255C610.349 229.556 607.512 222.808 609.64 218.761C610.349 218.761 610.349 219.435 610.349 219.435C611.767 219.435 611.767 218.761 613.186 218.761C613.186 217.411 614.605 216.062 615.313 214.036C616.023 214.713 615.313 214.713 616.733 215.385C617.442 214.713 617.442 213.361 618.149 212.687C618.86 213.361 619.57 214.036 620.278 214.036C622.407 213.361 623.824 210.663 623.115 207.965C624.534 207.29 625.243 207.29 625.952 206.616C626.662 206.616 627.372 207.29 628.08 207.965C631.626 205.266 630.917 200.542 632.337 197.169C632.337 197.844 633.755 199.193 633.755 199.868C638.01 199.193 638.01 194.471 635.172 191.771C635.881 191.097 636.59 191.097 637.301 190.422C638.719 192.445 640.138 193.796 639.429 195.819C640.846 194.471 641.554 193.796 642.266 191.097C644.392 188.396 638.719 183.675 641.554 178.276C642.266 179.626 643.684 180.3 644.392 180.975C645.103 180.3 645.812 179.626 646.52 178.951C645.812 177.601 645.812 176.252 645.103 174.903C644.392 174.903 644.392 174.902 643.684 175.578C643.684 173.553 644.392 173.553 642.975 171.529C646.52 171.529 646.52 170.853 646.52 168.155C648.649 166.805 648.649 165.456 649.358 163.432C647.229 162.082 646.52 160.059 645.812 158.709C646.52 158.709 646.52 158.034 647.229 158.034L647.938 158.709C648.649 158.034 649.358 156.684 649.358 155.334C646.52 153.31 642.975 149.938 642.975 145.888C643.684 145.888 644.392 145.888 644.392 145.888L645.103 143.864C645.812 143.189 645.812 143.189 645.812 141.84C646.52 140.491 647.229 138.467 647.938 136.442C647.938 137.116 647.938 137.792 648.649 138.467C646.52 135.093 647.229 133.068 650.777 133.068V131.718C650.777 131.044 650.777 131.044 650.777 131.718C651.485 132.393 652.903 133.068 653.613 133.742C652.903 131.718 654.323 131.718 652.903 129.695C654.323 129.695 655.032 128.346 655.741 128.346C653.613 124.971 657.868 122.947 659.286 121.597C658.578 120.923 658.578 122.947 658.578 122.947C658.578 121.597 659.286 120.249 659.286 119.573C658.578 118.899 658.578 119.573 657.868 120.249C657.868 120.923 658.578 118.899 658.578 118.224C657.868 118.224 657.159 118.224 657.159 118.224C656.45 117.55 656.45 116.2 655.741 115.526C654.323 114.852 654.323 115.526 653.613 115.526C653.613 115.526 653.613 114.852 652.903 114.852C652.194 116.2 650.777 116.875 650.068 118.899V117.55C649.358 118.899 647.938 120.249 647.229 121.597C647.229 120.249 646.52 118.899 645.812 118.224C643.684 120.249 642.975 122.947 641.554 125.646C642.266 122.947 642.975 120.249 643.684 118.224C642.975 118.224 642.266 118.899 641.554 118.899C642.266 117.55 642.266 115.526 642.975 113.5C642.266 114.852 642.266 115.526 641.554 116.2C641.554 116.2 641.554 114.852 640.846 114.852C640.138 116.875 638.719 118.224 636.59 119.573C635.881 119.573 635.172 119.573 634.463 119.573C635.172 118.224 635.172 116.875 636.59 115.526C635.881 116.2 633.755 116.875 633.045 116.875C632.337 116.2 632.337 115.526 632.337 114.852C630.207 115.526 628.08 114.852 626.662 114.852C627.372 110.126 632.337 108.103 635.881 111.476C636.59 110.802 637.301 109.452 638.01 109.452L638.719 110.126C639.429 109.452 640.138 108.778 640.846 108.103C640.138 106.753 640.138 106.079 639.429 104.729C638.719 104.729 638.01 104.729 637.301 104.729C637.301 104.056 638.01 104.056 638.01 103.38C638.01 102.031 636.59 101.356 635.881 100.681C636.59 100.681 637.301 100.681 638.01 100.681C634.463 100.005 632.337 101.356 631.626 104.056C629.498 102.705 627.372 101.356 625.952 99.3308C627.372 100.681 630.207 99.3308 632.337 97.3071C630.207 96.6327 630.207 95.9584 627.372 96.6327C625.243 93.2587 621.697 93.9338 619.57 96.6327C618.86 96.6327 618.86 95.9584 618.86 95.9584C618.149 95.9584 618.149 96.6327 617.442 97.3071C616.733 96.6327 616.023 95.9584 615.313 95.9584C615.313 96.6327 615.313 97.3071 615.313 97.9822C612.477 99.3308 609.64 100.681 606.093 99.3308C606.093 100.005 606.093 101.356 606.803 102.031C604.675 102.031 603.966 102.705 602.547 102.705C603.257 102.705 603.257 102.031 602.547 102.031C597.582 104.729 605.383 108.103 603.966 112.826C603.257 110.126 601.838 106.753 599.001 104.729C599.71 107.428 601.128 112.15 599.71 112.826C599.71 113.5 600.421 114.176 598.292 115.526C597.582 112.826 597.582 109.452 596.164 106.753C596.164 107.428 596.164 108.778 595.455 109.452C595.455 109.452 595.455 108.103 594.036 108.103C594.036 109.452 594.036 110.802 594.036 111.476C594.036 110.802 594.745 112.15 593.327 113.5C591.909 111.476 590.49 111.476 588.362 110.126C587.653 111.476 587.653 112.15 587.653 112.826C587.653 112.15 587.653 112.15 586.943 112.15C586.234 114.176 584.816 114.852 583.397 116.2C582.687 116.2 581.979 115.526 581.27 114.852C577.725 118.899 579.851 122.272 576.305 125.646C575.596 124.297 573.468 122.947 572.759 121.597C573.468 122.947 572.759 124.297 573.468 125.646C569.922 128.346 566.377 131.044 565.667 135.092C568.503 137.116 569.213 139.142 568.503 142.515C567.795 141.84 564.957 141.165 564.247 140.491C564.247 145.888 557.865 145.888 557.156 151.287C558.573 151.961 557.865 151.287 559.283 151.287C560.702 151.961 561.411 152.636 564.247 152.636C564.247 153.31 564.247 154.659 563.538 155.334C564.247 155.334 564.247 154.659 564.957 154.659C565.667 154.659 564.957 156.009 565.667 156.684C566.377 156.684 567.085 156.009 567.795 156.009C566.377 158.034 564.247 158.709 564.247 158.034H562.12" fill="#574778"/>
</g>
</svg>
